<svg id="Layer_1" data-name="Layer 1" xmlns="http://www.w3.org/2000/svg" viewBox="0 0 1080 1080"><defs><style>.cls-1{fill:#fff;}.cls-2{fill:none;}.cls-3{fill:#3fb049;}.cls-4{fill:#ea1e2f;}.cls-5{fill:#00aed8;}.cls-6{fill:#fdb714;}</style></defs><path class="cls-1" d="M31.05,898.44,17.76,859.63h4.33l11.7,34.43,11.66-34.43h4.27L36.43,898.44Z"/><path class="cls-1" d="M81.93,898.44V859.63h4.22v38.81Z"/><path class="cls-1" d="M120.64,898.44V859.63h15.29a15,15,0,0,1,3.69.45,8,8,0,0,1,3.24,1.66,8.08,8.08,0,0,1,2.3,3.45,17.12,17.12,0,0,1,.84,5.88,16.81,16.81,0,0,1-.68,5.2,8.77,8.77,0,0,1-1.8,3.21,7.1,7.1,0,0,1-2.4,1.74,11.15,11.15,0,0,1-2.5.77l8,16.45h-4.27l-7.54-15.87c-.56,0-1.27,0-2.11-.06s-1.74,0-2.69,0-1.87,0-2.77-.05-1.68,0-2.34,0v16.08Zm4.22-19.3H135.3a9.68,9.68,0,0,0,2.53-.32,4.62,4.62,0,0,0,2-1.18,6,6,0,0,0,1.43-2.45,13.39,13.39,0,0,0,.53-4.12,12.22,12.22,0,0,0-.53-3.93,5.5,5.5,0,0,0-1.45-2.32,4.93,4.93,0,0,0-2.08-1.1,9.92,9.92,0,0,0-2.48-.29H124.86Z"/><path class="cls-1" d="M187.82,898.44v-35h-12v-3.8H204v3.8H192v35Z"/><path class="cls-1" d="M249,898.76a28,28,0,0,1-5.91-.58,11.68,11.68,0,0,1-4.51-2,8.8,8.8,0,0,1-2.87-3.8,15.52,15.52,0,0,1-1-6V859.63H239v26.79a9.52,9.52,0,0,0,1.19,5.16,6.28,6.28,0,0,0,3.45,2.61,19.57,19.57,0,0,0,10.87,0,6.28,6.28,0,0,0,3.45-2.61,9.52,9.52,0,0,0,1.19-5.16V859.63h4.22v26.79a15.52,15.52,0,0,1-1,6,8.88,8.88,0,0,1-2.87,3.8,11.68,11.68,0,0,1-4.51,2A28,28,0,0,1,249,898.76Z"/><path class="cls-1" d="M293.43,898.44l13.29-38.81h5.38l13.29,38.81h-4.33l-3.9-11.07H301.55l-3.79,11.07Zm9.18-14.87h13.5l-6.7-20.25Z"/><path class="cls-1" d="M365.41,898.44a10.77,10.77,0,0,1-4-.71,5.55,5.55,0,0,1-2.77-2.43,9.21,9.21,0,0,1-1-4.66v-31h4.21v30.43a5.33,5.33,0,0,0,.64,2.87,3.12,3.12,0,0,0,1.68,1.32,7,7,0,0,0,2.17.34h13.92v3.85Z"/><path class="cls-1" d="M463.64,898.76c-.77,0-1.69,0-2.76-.08l-3.3-.21c-1.12-.09-2.19-.19-3.19-.29s-1.84-.23-2.5-.37v-3.22c.87.07,1.95.14,3.21.21s2.63.12,4.09.16,2.89,0,4.3,0a18,18,0,0,0,4.27-.47,5.94,5.94,0,0,0,3-1.74,5.27,5.27,0,0,0,1.13-3.64v-2.64a5.56,5.56,0,0,0-1.37-4.08,6,6,0,0,0-4.43-1.4H462q-4.8,0-7.52-2.11c-1.81-1.41-2.71-3.83-2.71-7.28v-2.21q0-5.49,2.95-7.81c2-1.54,4.75-2.32,8.33-2.32,1.13,0,2.39.07,3.8.19s2.77.26,4.09.42,2.41.33,3.29.5v3.22c-1.55-.14-3.29-.27-5.25-.37s-3.78-.16-5.51-.16a13.59,13.59,0,0,0-4.11.55,4.81,4.81,0,0,0-2.66,2,7.21,7.21,0,0,0-.92,4v1.79q0,3.21,1.68,4.43a7.93,7.93,0,0,0,4.7,1.21h4.48a10.68,10.68,0,0,1,5.27,1.16,7.35,7.35,0,0,1,3.06,3.19,10.38,10.38,0,0,1,1,4.67v3a9.49,9.49,0,0,1-1.66,6,8.34,8.34,0,0,1-4.43,2.9A22.4,22.4,0,0,1,463.64,898.76Z"/><path class="cls-1" d="M522.17,898.76a20.65,20.65,0,0,1-6.06-.8,8.55,8.55,0,0,1-4.27-2.87,13.9,13.9,0,0,1-2.5-6,51,51,0,0,1-.82-10.18,46.56,46.56,0,0,1,.84-9.73,14.71,14.71,0,0,1,2.56-6,9,9,0,0,1,4.35-3,19.91,19.91,0,0,1,6.22-.87,35.27,35.27,0,0,1,3.64.21c1.33.15,2.65.31,4,.51a32,32,0,0,1,3.54.71v3.11c-.6-.11-1.44-.21-2.53-.32s-2.33-.2-3.72-.29-2.81-.13-4.25-.13a16,16,0,0,0-4.79.63,6.24,6.24,0,0,0-3.25,2.35,12.12,12.12,0,0,0-1.82,4.82,46.3,46.3,0,0,0-.58,8.07,49.37,49.37,0,0,0,.56,8.2,11.9,11.9,0,0,0,1.76,4.88,6.18,6.18,0,0,0,3.17,2.32A16,16,0,0,0,523,895c2.63,0,4.8-.07,6.48-.21s3.06-.3,4.12-.47v3.16q-1.59.38-3.51.66c-1.28.19-2.6.34-4,.45S523.47,898.76,522.17,898.76Z"/><path class="cls-1" d="M566.47,898.44V859.63h4.22v38.81Z"/><path class="cls-1" d="M613.4,898.65a16.17,16.17,0,0,1-2.69-.24,7.9,7.9,0,0,1-2.69-1A5.48,5.48,0,0,1,606,895.2a9,9,0,0,1-.79-4.09V867.43a9.43,9.43,0,0,1,.66-3.77,6,6,0,0,1,1.77-2.37,7,7,0,0,1,2.48-1.26,9.56,9.56,0,0,1,2.74-.4q3.27.06,6.06.13l5.3.16c1.67.05,3.3.11,4.88.18v3.38H613.87a4.66,4.66,0,0,0-3.27,1.11,4.56,4.56,0,0,0-1.21,3.53v9.17l17.35.27v3.21l-17.35.27v9.12a5.37,5.37,0,0,0,.66,3,3.07,3.07,0,0,0,1.77,1.32,8.17,8.17,0,0,0,2.26.32h15v3.37c-1.62.11-3.32.2-5.09.27s-3.55.12-5.33.15Z"/><path class="cls-1" d="M663.23,898.44V859.63h3.42l20.25,31.58V859.63h4.17v38.81h-3.43l-20.25-31.59v31.59Z"/><path class="cls-1" d="M737.58,898.76a20.72,20.72,0,0,1-6.07-.8,8.59,8.59,0,0,1-4.27-2.87,14,14,0,0,1-2.5-6,51,51,0,0,1-.82-10.18,46.56,46.56,0,0,1,.84-9.73,14.71,14.71,0,0,1,2.56-6,9,9,0,0,1,4.35-3,19.91,19.91,0,0,1,6.22-.87,35.27,35.27,0,0,1,3.64.21c1.34.15,2.65.31,4,.51a31.84,31.84,0,0,1,3.53.71v3.11c-.6-.11-1.44-.21-2.53-.32s-2.33-.2-3.72-.29-2.8-.13-4.24-.13a16.05,16.05,0,0,0-4.8.63,6.24,6.24,0,0,0-3.25,2.35,12.12,12.12,0,0,0-1.82,4.82,46.3,46.3,0,0,0-.58,8.07,49.37,49.37,0,0,0,.56,8.2,12,12,0,0,0,1.76,4.88,6.18,6.18,0,0,0,3.17,2.32,16,16,0,0,0,4.85.63q4,0,6.49-.21c1.68-.14,3.05-.3,4.11-.47v3.16q-1.59.38-3.51.66c-1.28.19-2.6.34-4,.45S738.88,898.76,737.58,898.76Z"/><path class="cls-1" d="M789.57,898.65a16.17,16.17,0,0,1-2.69-.24,7.9,7.9,0,0,1-2.69-1,5.48,5.48,0,0,1-2.06-2.24,9,9,0,0,1-.79-4.09V867.43a9.43,9.43,0,0,1,.66-3.77,6,6,0,0,1,1.77-2.37,7.1,7.1,0,0,1,2.48-1.26,9.56,9.56,0,0,1,2.74-.4q3.27.06,6.06.13l5.3.16c1.67.05,3.3.11,4.88.18v3.38H790a4.66,4.66,0,0,0-3.27,1.11,4.56,4.56,0,0,0-1.21,3.53v9.17l17.35.27v3.21l-17.35.27v9.12a5.37,5.37,0,0,0,.66,3,3.07,3.07,0,0,0,1.77,1.32,8.17,8.17,0,0,0,2.26.32h15v3.37c-1.62.11-3.32.2-5.09.27s-3.55.12-5.33.15Z"/><path class="cls-1" d="M879.26,898.44v-31a9.43,9.43,0,0,1,.66-3.77,6,6,0,0,1,1.77-2.37,7.05,7.05,0,0,1,2.47-1.26,9.68,9.68,0,0,1,2.75-.4l5,.1c1.81,0,3.67.08,5.59.14s3.79.15,5.62.29v3.32H887.91a4.42,4.42,0,0,0-3.27,1.16,4.67,4.67,0,0,0-1.16,3.43v10.07l17.35.26v3.22l-17.35.26v16.56Z"/><path class="cls-1" d="M930.35,898.44l13.29-38.81H949l13.29,38.81H958l-3.91-11.07h-15.6l-3.8,11.07Zm9.18-14.87H953l-6.7-20.25Z"/><path class="cls-1" d="M994.53,898.44V859.63h4.22v38.81Z"/><path class="cls-1" d="M1033.23,898.44V859.63h15.29a15,15,0,0,1,3.69.45,8,8,0,0,1,3.25,1.66,8.16,8.16,0,0,1,2.29,3.45,17.12,17.12,0,0,1,.84,5.88,16.51,16.51,0,0,1-.68,5.2,8.9,8.9,0,0,1-1.79,3.21,7.2,7.2,0,0,1-2.4,1.74,11.22,11.22,0,0,1-2.51.77l8,16.45h-4.27l-7.54-15.87c-.56,0-1.26,0-2.11-.06s-1.74,0-2.69,0-1.87,0-2.76-.05-1.68,0-2.35,0v16.08Zm4.22-19.3h10.44a9.63,9.63,0,0,0,2.53-.32,4.71,4.71,0,0,0,2.06-1.18,6,6,0,0,0,1.42-2.45,13.39,13.39,0,0,0,.53-4.12,12.22,12.22,0,0,0-.53-3.93,5.4,5.4,0,0,0-1.45-2.32,4.88,4.88,0,0,0-2.08-1.1,9.86,9.86,0,0,0-2.48-.29h-10.44Z"/><polygon class="cls-1" points="201.08 583.85 194.4 603.96 144.12 587.28 150.8 567.16 201.08 583.85"/><rect class="cls-1" x="174.22" y="520.83" width="10.6" height="87.79" transform="translate(-413.01 557.16) rotate(-71.63)"/><path class="cls-2" d="M141,540l-5.35-1.78-4.64,14-7.13-26.07c5.57-3,10.74-4.65,15.13-4.76Q139.79,530.67,141,540Z"/><path class="cls-2" d="M142.85,432.86V433c-.05.27-.09.54-.14.81A345.36,345.36,0,0,0,138,504.09l-.67,9.8a42.1,42.1,0,0,0-15.48,4.83L105,457a120.18,120.18,0,0,1,37-23.76C142.28,433.09,142.57,433,142.85,432.86Z"/><polygon class="cls-2" points="145.05 565.25 139.32 582.49 133.57 561.44 145.05 565.25"/><path class="cls-2" d="M188,316.93q-4.14,6.27-8,12.83a291.85,291.85,0,0,0-14.52,28.37,315,315,0,0,0-20.94,65.94l-3.47,1.35q-2.81,1.11-5.52,2.32a127.7,127.7,0,0,0-32.78,21l-7-25.57L62.5,301.51l102.44-70L187,313.48Z"/><polygon class="cls-2" points="201.08 583.85 194.4 603.96 144.12 587.28 150.8 567.16 201.08 583.85"/><rect class="cls-2" x="174.22" y="520.83" width="10.6" height="87.79" transform="translate(-413.01 557.16) rotate(-71.63)"/><path class="cls-3" d="M778.33,531.51H684.26L695.63,490c26.86-18.87,50.32-30.31,70.75-37.51-22.17,47.82,9.72,77,11.84,78.92Z"/><path class="cls-3" d="M874.57,413.05l-.19.35c-5.48,10.32-16.54,17.51-35.66,19.29-79.07,7.36-122,33.18-139.61,44.61l17.57-64.15,0-.1Z"/><path class="cls-3" d="M778.41,531.42c34.54-37.45,3.66-71.7-6.12-80.92A236.57,236.57,0,0,1,804,442.67c2.27,16.08,17.21,84,107.48,88.75l1.93.09h-135Z"/><path class="cls-3" d="M885.85,413.05l-.82.35c-1.19.51-2.4,1.07-3.62,1.68.31-.56.61-1.12.89-1.68l.18-.35Z"/><path class="cls-3" d="M999.24,413.05l-.1.37-31.73,118,0,.09h-54a.62.62,0,0,0,0-.09c-.21-2.4-4.91-51.95-26.34-69.09-15.78-12.61-42.33-20.13-62.95-22.56,13.8-1.66,25.15-2.68,34.4-6,9.49-3.4,15.85-8.67,20.08-14.33,6.14,8.7,32.41,40.24,80.94,23.11,0,0-9.57-19.51-28.7-29.16l-.71-.36Z"/><line class="cls-2" x1="251.58" y1="510.65" x2="246.04" y2="530.66"/><path class="cls-4" d="M141,540l-5.35-1.78-4.64,14-.1.29-7.21-26.26.18-.1c5.57-3,10.74-4.65,15.13-4.76Q139.79,530.67,141,540Z"/><path class="cls-4" d="M142.85,432.86V433c-.05.27-.09.54-.14.81A345.36,345.36,0,0,0,138,504.09l-.67,9.8a42.1,42.1,0,0,0-15.48,4.83l-.2.1L104.77,457.2,105,457a120.18,120.18,0,0,1,37-23.76C142.28,433.09,142.57,433,142.85,432.86Z"/><polygon class="cls-4" points="145.05 565.25 139.32 582.49 139.24 582.73 133.38 561.38 133.57 561.44 145.05 565.25"/><path class="cls-4" d="M188,316.93q-4.14,6.27-8,12.83a291.85,291.85,0,0,0-14.52,28.37,315,315,0,0,0-20.94,65.94l-3.47,1.35q-2.81,1.11-5.52,2.32a127.7,127.7,0,0,0-32.78,21l-.25.22-6.76-24.63L29,181.25l122.8,1.51,13.15,48.78L187,313.48Z"/><polygon class="cls-4" points="201.08 583.85 194.4 603.96 144.12 587.28 150.8 567.16 201.08 583.85"/><rect class="cls-4" x="174.22" y="520.83" width="10.6" height="87.79" transform="translate(-413.01 557.16) rotate(-71.63)"/><path class="cls-4" d="M248.64,531.49q-4.59,5.71-9.5,11.15c-3.62,4-7.35,7.94-11.22,11.72q-5,4.89-10.21,9.5L148.8,541a355.52,355.52,0,0,1-3.16-37,338.62,338.62,0,0,1,3.94-64.3c.21-1.35.44-2.7.67-4.05a303.58,303.58,0,0,1,35.1-99.21q2.63-4.59,5.41-9.07l2.48,9.2L203.88,376l3.3,12.22a0,0,0,0,0,0,0l7,26.13,3.31,12.27L245.8,531.51Z"/><path class="cls-4" d="M261.44,649.76c6.66-43.32-.63-85.62-17.55-100.52l1.32-2c4.55-5.07,8.95-10.34,13.14-15.78l46.69-.31C309.79,575.07,290.63,619.3,261.44,649.76Z"/><path class="cls-4" d="M312.65,531.08c5.06,49.79-18.78,99.73-53.43,131.43l-.39.35-8.44,4.24,1.6-7.69c10.29-48.91,1.39-92.61-13.58-104.89-2,2.14-4.15,4.24-6.27,6.29q-1.56,1.53-3.15,3l-.08.07q-1.6,1.51-3.23,3c-.33.31-.65.61-1,.9l.78.26,5,1.68-7.16,21.54-1.92-.64-14.61-4.84-8.46,25.53-.11.33-.65-.22h0L142.2,593l-.14,0,7,25.45L153,632.7l0-.14L156.85,621a3.78,3.78,0,1,1,7.18,2.38l-7.42,22.35,0,.1,13.52,49.25,9.43,34.33,8.75,31.85,118.59.39.11-.39,8.74-31.85,16.49-60,7.15-27L369,530.72Zm-88.26,82.44a3.79,3.79,0,0,1,2.6,3.59,3.54,3.54,0,0,1-.2,1.19l-15,45.26a3.79,3.79,0,0,1-7.19-2.39l15-45.25A3.79,3.79,0,0,1,224.39,613.52Zm-47.13,63.7a3.78,3.78,0,1,1-7.18-2.38l14.31-43.1a3.79,3.79,0,0,1,7.38,1.19,3.87,3.87,0,0,1-.2,1.2Z"/><polygon points="383.82 181.24 383.75 181.53 383.74 181.53 383.82 181.24"/><path class="cls-4" d="M314.11,345.57q0,1.71,0,3.42c0,.36,0,.71,0,1.07q0,1.5-.06,3c0,.27,0,.54,0,.81,0,1.23-.08,2.46-.14,3.69s-.12,2.67-.2,4c0,.88-.1,1.76-.16,2.63l0,.44c0,.05,0,.09,0,.14,0,.6-.08,1.21-.13,1.8-.07,1-.15,2-.24,3-.22,2.68-.49,5.35-.79,8a298.27,298.27,0,0,1-5.4,32H279.57l27-100.48,1.53-5.7.15,0c.81-.2,1.59-.43,2.39-.67.15.91.29,1.81.43,2.72s.26,1.7.38,2.55c.1.67.19,1.35.28,2s.16,1.11.22,1.67c0,.05,0,.09,0,.14s0,.11,0,.16c.06.43.11.87.16,1.3.11.88.21,1.77.31,2.66s.17,1.56.25,2.35.14,1.37.2,2.05c0,0,0,.05,0,.08.08.81.15,1.61.22,2.42,0,.06,0,.11,0,.17l0,.32c.09,1.1.17,2.19.25,3.3s.15,2.34.22,3.52h0c0,.17,0,.33,0,.5q.09,1.51.15,3c0,.15,0,.3,0,.46.05,1.08.09,2.17.12,3.26,0,.14,0,.29,0,.43,0,1.28.07,2.57.08,3.85S314.11,344.29,314.11,345.57Z"/><path class="cls-4" d="M316.91,271.61,315,278.86l-.78,2.91a3.15,3.15,0,0,0-.11-.44L315,278l1.73-6.42Z"/><path class="cls-4" d="M433.72,301.17l-1.08,4-2.41,8.74-26.3,95.74H314.79c.31-1.42.62-2.83.91-4.25.23-1.13.46-2.27.68-3.4.07-.33.13-.66.19-1,.23-1.16.44-2.33.65-3.49.18-1,.35-2,.51-3,.09-.5.18-1,.25-1.5s.16-.94.23-1.41q.46-2.82.85-5.63s0,0,0-.06c.13-.94.26-1.88.38-2.82l.09-.69,0-.28q.1-.7.18-1.41c.12-1,.24-2,.35-2.94.14-1.25.27-2.49.39-3.74q.13-1.26.24-2.52c.08-.84.16-1.68.22-2.52q.32-3.72.52-7.42l.06-1.13c0-.05,0-.11,0-.16,0-.76.08-1.52.11-2.28,0-.11,0-.22,0-.33a.66.66,0,0,0,0-.14l0-.69c.05-1.15.09-2.31.12-3.46v0c0-1.2.06-2.39.07-3.59,0-.39,0-.77,0-1.16,0-1,0-2.08,0-3.12v0q0-1.87,0-3.75c0-.32,0-.64,0-.95,0-.7,0-1.4-.05-2.09,0-.32,0-.63,0-.95s0-.45,0-.67v-.16c0-.1,0-.19,0-.29s0-.15,0-.23c0-.95-.07-1.89-.11-2.83v-.07c-.06-1.31-.13-2.62-.2-3.93-.05-.85-.1-1.71-.16-2.56,0-.1,0-.19,0-.29a.34.34,0,0,0,0-.1c0-.57-.07-1.14-.12-1.7-.09-1.14-.18-2.28-.28-3.42s-.2-2.17-.31-3.25c0-.28-.05-.56-.08-.84-.12-1.18-.25-2.35-.39-3.52q-.75-6.39-1.83-12.68h9.05l74.92,0h31.48Z"/><path class="cls-5" d="M640.24,596.22,636,618.83l-18.29,1.06L605.57,645l10.57,15-15,17.42-16.38-8.22-23,15.66,1.67,18.26-21.72,7.59-10.07-15.32-27.74,2.07L496.21,714l-22.61-4.29-1.05-18.31-25.07-12.08-15,10.58-17.42-15,8.22-16.38-8.06-11.84-2.92-4.29h56.93A70.79,70.79,0,0,0,556.6,531.48l.6-2.17-3,0a70.73,70.73,0,0,0-91.59.68l-49.33.38-4.59,0,3.38-7,1-2.15-10.57-15,15-17.43,16.39,8.23,23-15.66-1.67-18.26,21.72-7.59L487,470.91l27.74-2.08,7.69-16.64L545,456.48l1.05,18.31,25.07,12.07,15-10.57,17.43,15-8.22,16.38,15.65,23L629.25,529l7.59,21.72-15.32,10.07,2.08,27.75Z"/><polygon class="cls-5" points="739.9 328.38 716.71 413.05 716.68 413.15 699.11 477.3 695.63 490.01 684.26 531.51 669.24 586.35 629.78 730.42 620.97 762.59 306.98 761.27 315.72 729.42 332.21 669.38 339.36 642.41 405.66 642.41 405.67 642.42 409.07 647.42 416.94 658.96 408.25 676.29 432.17 696.9 448.01 685.71 467.25 694.99 468.37 714.35 499.39 720.23 507.53 702.62 528.83 701.04 539.47 717.23 569.28 706.81 567.52 687.51 585.17 675.49 602.49 684.18 623.1 660.26 611.92 644.43 621.19 625.18 640.55 624.06 646.44 593.04 628.82 584.91 627.24 563.6 643.44 552.96 633.02 523.15 613.72 524.91 601.69 507.26 610.39 489.94 586.46 469.33 570.63 480.52 551.38 471.24 550.26 451.88 519.24 446 511.11 463.61 489.81 465.19 479.17 448.99 449.36 459.41 451.11 478.72 433.47 490.74 416.14 482.04 402.24 498.18 395.53 505.97 402.24 515.46 406.72 521.8 405.94 523.42 402.57 530.42 402.55 530.47 402.24 530.47 369.24 530.72 368.95 530.72 312.65 531.08 305.04 531.12 258.35 531.43 248.66 531.49 248.64 531.49 245.8 531.51 246.04 530.66 251.58 510.65 259.52 481.96 279.55 409.63 591.67 409.63 739.9 328.38"/><polygon class="cls-5" points="339.36 642.4 332.21 669.38 306.98 761.27 306.79 761.27 338.72 642.4 339.36 642.4"/><path class="cls-6" d="M1061.49,181.25l0,.17-8.62,34.79L1044,251.93l-5,20-7.18,29-598.11.24H402.24l-74.92,0H309l.74-2.79.12-.42,4.32-16.22h0l.78-2.91,1.94-7.25,6.92-26,17.09-64.09h0l0-.11,0-.17h17.77V240a3.4,3.4,0,0,0,3.4,3.37h2.06a3.4,3.4,0,0,0,3.4-3.37V181.25h16.19l-.05.17,0,.11h0l0-.11,0-.17H403v24.08a3.09,3.09,0,0,0,3.1,3.06h2.66a3.09,3.09,0,0,0,3.11-3.06V181.25h38.36V240a3.4,3.4,0,0,0,3.39,3.37h2.07a3.4,3.4,0,0,0,3.39-3.37V181.25h32.47v22.63a3.06,3.06,0,0,0,3.09,3.05h2.66a3.08,3.08,0,0,0,3.11-3.05V181.25h38.36V238.5a3.4,3.4,0,0,0,3.39,3.38h2.07a3.4,3.4,0,0,0,3.39-3.38V181.25H586v22.63a3.06,3.06,0,0,0,3.09,3.05h2.66a3.07,3.07,0,0,0,3.1-3.05V181.25h38.37V238.5a3.4,3.4,0,0,0,3.39,3.38h2.07a3.4,3.4,0,0,0,3.39-3.38V181.25H678V206a3.08,3.08,0,0,0,3.1,3.06h2.66a3.07,3.07,0,0,0,3.09-3.06V181.25h38.37v59.4a3.4,3.4,0,0,0,3.39,3.35h2.08a3.4,3.4,0,0,0,3.39-3.35v-59.4h35.41V206a3.08,3.08,0,0,0,3.11,3.06h2.64a3.08,3.08,0,0,0,3.11-3.06V181.25h38.36v59.4a3.4,3.4,0,0,0,3.4,3.35h2.06a3.38,3.38,0,0,0,3.39-3.35v-59.4H858v23.3a3.08,3.08,0,0,0,3.1,3h2.65a3.08,3.08,0,0,0,3.11-3v-23.3h38.37V239.2a3.39,3.39,0,0,0,3.39,3.35h2.06a3.39,3.39,0,0,0,3.4-3.35V181.25h38.37v23.3a3.07,3.07,0,0,0,3.1,3h2.65a3.07,3.07,0,0,0,3.1-3v-23.3h38.38V239.2a3.38,3.38,0,0,0,3.39,3.35h2.06a3.4,3.4,0,0,0,3.4-3.35V181.25Z"/><polygon class="cls-6" points="383.82 181.24 383.75 181.53 383.74 181.53 383.82 181.24"/><path class="cls-2" d="M623.6,588.54l-2.08-27.75,15.32-10.07L629.25,529,611,530.67l-15.65-23,8.22-16.38-17.43-15-15,10.57-25.07-12.07L545,456.48l-22.61-4.29-7.69,16.64L487,470.91l-10.07-15.32-21.72,7.59,1.67,18.26-23,15.66-16.39-8.23-15,17.43,10.57,15-1,2.15-3.38,7,4.59,0,49.33-.38a70.73,70.73,0,0,1,91.59-.68l3,0-.6,2.17a70.79,70.79,0,0,1-87.35,110.93H412.32l2.92,4.29,8.06,11.84-8.22,16.38,17.42,15,15-10.58,25.07,12.08,1.05,18.31L496.21,714l7.69-16.65,27.74-2.07,10.07,15.32,21.72-7.59-1.67-18.26,23-15.66,16.38,8.22,15-17.42-10.57-15,12.09-25.06L636,618.83l4.29-22.61ZM882.3,413.4c-.28.56-.58,1.12-.89,1.68,1.22-.61,2.43-1.17,3.62-1.68Zm29.15,118c-90.27-4.76-105.21-72.67-107.48-88.75a236.57,236.57,0,0,0-31.68,7.83c9.78,9.22,40.66,43.47,6.12,80.92Zm87.69-118H930.8c19.13,9.65,28.7,29.16,28.7,29.16-48.53,17.13-74.8-14.41-80.94-23.11-4.23,5.66-10.59,10.93-20.08,14.33-9.25,3.3-20.6,4.32-34.4,6,20.62,2.43,47.17,10,62.95,22.56,21.43,17.14,26.13,66.69,26.34,69.09h54.87l32-118ZM623.6,588.54l-2.08-27.75,15.32-10.07L629.25,529,611,530.67l-15.65-23,8.22-16.38-17.43-15-15,10.57-25.07-12.07L545,456.48l-22.61-4.29-7.69,16.64L487,470.91l-10.07-15.32-21.72,7.59,1.67,18.26-23,15.66-16.39-8.23-15,17.43,10.57,15-1,2.15-3.38,7,4.59,0,49.33-.38a70.73,70.73,0,0,1,91.59-.68l3,0-.6,2.17a70.79,70.79,0,0,1-87.35,110.93H412.32l2.92,4.29,8.06,11.84-8.22,16.38,17.42,15,15-10.58,25.07,12.08,1.05,18.31L496.21,714l7.69-16.65,27.74-2.07,10.07,15.32,21.72-7.59-1.67-18.26,23-15.66,16.38,8.22,15-17.42-10.57-15,12.09-25.06L636,618.83l4.29-22.61Zm0,0-2.08-27.75,15.32-10.07L629.25,529,611,530.67l-15.65-23,8.22-16.38-17.43-15-15,10.57-25.07-12.07L545,456.48l-22.61-4.29-7.69,16.64L487,470.91l-10.07-15.32-21.72,7.59,1.67,18.26-23,15.66-16.39-8.23-15,17.43,10.57,15-1,2.15-3.38,7,4.59,0,49.33-.38a70.73,70.73,0,0,1,91.59-.68l3,0-.6,2.17a70.79,70.79,0,0,1-87.35,110.93H412.32l2.92,4.29,8.06,11.84-8.22,16.38,17.42,15,15-10.58,25.07,12.08,1.05,18.31L496.21,714l7.69-16.65,27.74-2.07,10.07,15.32,21.72-7.59-1.67-18.26,23-15.66,16.38,8.22,15-17.42-10.57-15,12.09-25.06L636,618.83l4.29-22.61Zm0,0-2.08-27.75,15.32-10.07L629.25,529,611,530.67l-15.65-23,8.22-16.38-17.43-15-15,10.57-25.07-12.07L545,456.48l-22.61-4.29-7.69,16.64L487,470.91l-10.07-15.32-21.72,7.59,1.67,18.26-23,15.66-16.39-8.23-15,17.43,10.57,15-1,2.15-3.38,7,4.59,0,49.33-.38a70.73,70.73,0,0,1,91.59-.68l3,0-.6,2.17a70.79,70.79,0,0,1-87.35,110.93H412.32l2.92,4.29,8.06,11.84-8.22,16.38,17.42,15,15-10.58,25.07,12.08,1.05,18.31L496.21,714l7.69-16.65,27.74-2.07,10.07,15.32,21.72-7.59-1.67-18.26,23-15.66,16.38,8.22,15-17.42-10.57-15,12.09-25.06L636,618.83l4.29-22.61Zm0,0-2.08-27.75,15.32-10.07L629.25,529,611,530.67l-15.65-23,8.22-16.38-17.43-15-15,10.57-25.07-12.07L545,456.48l-22.61-4.29-7.69,16.64L487,470.91l-10.07-15.32-21.72,7.59,1.67,18.26-23,15.66-16.39-8.23-15,17.43,10.57,15-1,2.15-3.38,7,4.59,0,49.33-.38a70.73,70.73,0,0,1,91.59-.68l3,0-.6,2.17a70.79,70.79,0,0,1-87.35,110.93H412.32l2.92,4.29,8.06,11.84-8.22,16.38,17.42,15,15-10.58,25.07,12.08,1.05,18.31L496.21,714l7.69-16.65,27.74-2.07,10.07,15.32,21.72-7.59-1.67-18.26,23-15.66,16.38,8.22,15-17.42-10.57-15,12.09-25.06L636,618.83l4.29-22.61Zm0,0-2.08-27.75,15.32-10.07L629.25,529,611,530.67l-15.65-23,8.22-16.38-17.43-15-15,10.57-25.07-12.07L545,456.48l-22.61-4.29-7.69,16.64L487,470.91l-10.07-15.32-21.72,7.59,1.67,18.26-23,15.66-16.39-8.23-15,17.43,10.57,15-1,2.15-3.38,7,4.59,0,49.33-.38a70.73,70.73,0,0,1,91.59-.68l3,0-.6,2.17a70.79,70.79,0,0,1-87.35,110.93H412.32l2.92,4.29,8.06,11.84-8.22,16.38,17.42,15,15-10.58,25.07,12.08,1.05,18.31L496.21,714l7.69-16.65,27.74-2.07,10.07,15.32,21.72-7.59-1.67-18.26,23-15.66,16.38,8.22,15-17.42-10.57-15,12.09-25.06L636,618.83l4.29-22.61Zm0,0-2.08-27.75,15.32-10.07L629.25,529,611,530.67l-15.65-23,8.22-16.38-17.43-15-15,10.57-25.07-12.07L545,456.48l-22.61-4.29-7.69,16.64L487,470.91l-10.07-15.32-21.72,7.59,1.67,18.26-23,15.66-16.39-8.23-15,17.43,10.57,15-1,2.15-3.38,7,4.59,0,49.33-.38a70.73,70.73,0,0,1,91.59-.68l3,0-.6,2.17a70.79,70.79,0,0,1-87.35,110.93H412.32l2.92,4.29,8.06,11.84-8.22,16.38,17.42,15,15-10.58,25.07,12.08,1.05,18.31L496.21,714l7.69-16.65,27.74-2.07,10.07,15.32,21.72-7.59-1.67-18.26,23-15.66,16.38,8.22,15-17.42-10.57-15,12.09-25.06L636,618.83l4.29-22.61Zm0,0-2.08-27.75,15.32-10.07L629.25,529,611,530.67l-15.65-23,8.22-16.38-17.43-15-15,10.57-25.07-12.07L545,456.48l-22.61-4.29-7.69,16.64L487,470.91l-10.07-15.32-21.72,7.59,1.67,18.26-23,15.66-16.39-8.23-15,17.43,10.57,15-1,2.15-3.38,7,4.59,0,49.33-.38a70.73,70.73,0,0,1,91.59-.68l3,0-.6,2.17a70.79,70.79,0,0,1-87.35,110.93H412.32l2.92,4.29,8.06,11.84-8.22,16.38,17.42,15,15-10.58,25.07,12.08,1.05,18.31L496.21,714l7.69-16.65,27.74-2.07,10.07,15.32,21.72-7.59-1.67-18.26,23-15.66,16.38,8.22,15-17.42-10.57-15,12.09-25.06L636,618.83l4.29-22.61Zm0,0-2.08-27.75,15.32-10.07L629.25,529,611,530.67l-15.65-23,8.22-16.38-17.43-15-15,10.57-25.07-12.07L545,456.48l-22.61-4.29-7.69,16.64L487,470.91l-10.07-15.32-21.72,7.59,1.67,18.26-23,15.66-16.39-8.23-15,17.43,10.57,15-1,2.15-3.38,7,4.59,0,49.33-.38a70.73,70.73,0,0,1,91.59-.68l3,0-.6,2.17a70.79,70.79,0,0,1-87.35,110.93H412.32l2.92,4.29,8.06,11.84-8.22,16.38,17.42,15,15-10.58,25.07,12.08,1.05,18.31L496.21,714l7.69-16.65,27.74-2.07,10.07,15.32,21.72-7.59-1.67-18.26,23-15.66,16.38,8.22,15-17.42-10.57-15,12.09-25.06L636,618.83l4.29-22.61Zm0,0-2.08-27.75,15.32-10.07L629.25,529,611,530.67l-15.65-23,8.22-16.38-17.43-15-15,10.57-25.07-12.07L545,456.48l-22.61-4.29-7.69,16.64L487,470.91l-10.07-15.32-21.72,7.59,1.67,18.26-23,15.66-16.39-8.23-15,17.43,10.57,15-1,2.15-3.38,7,4.59,0,49.33-.38a70.73,70.73,0,0,1,91.59-.68l3,0-.6,2.17a70.79,70.79,0,0,1-87.35,110.93H412.32l2.92,4.29,8.06,11.84-8.22,16.38,17.42,15,15-10.58,25.07,12.08,1.05,18.31L496.21,714l7.69-16.65,27.74-2.07,10.07,15.32,21.72-7.59-1.67-18.26,23-15.66,16.38,8.22,15-17.42-10.57-15,12.09-25.06L636,618.83l4.29-22.61Zm0,0-2.08-27.75,15.32-10.07L629.25,529,611,530.67l-15.65-23,8.22-16.38-17.43-15-15,10.57-25.07-12.07L545,456.48l-22.61-4.29-7.69,16.64L487,470.91l-10.07-15.32-21.72,7.59,1.67,18.26-23,15.66-16.39-8.23-15,17.43,10.57,15-1,2.15-3.38,7,4.59,0,49.33-.38a70.73,70.73,0,0,1,91.59-.68l3,0-.6,2.17a70.79,70.79,0,0,1-87.35,110.93H412.32l2.92,4.29,8.06,11.84-8.22,16.38,17.42,15,15-10.58,25.07,12.08,1.05,18.31L496.21,714l7.69-16.65,27.74-2.07,10.07,15.32,21.72-7.59-1.67-18.26,23-15.66,16.38,8.22,15-17.42-10.57-15,12.09-25.06L636,618.83l4.29-22.61Zm0,0-2.08-27.75,15.32-10.07L629.25,529,611,530.67l-15.65-23,8.22-16.38-17.43-15-15,10.57-25.07-12.07L545,456.48l-22.61-4.29-7.69,16.64L487,470.91l-10.07-15.32-21.72,7.59,1.67,18.26-23,15.66-16.39-8.23-15,17.43,10.57,15-1,2.15-3.38,7,4.59,0,49.33-.38a70.73,70.73,0,0,1,91.59-.68l3,0-.6,2.17a70.79,70.79,0,0,1-87.35,110.93H412.32l2.92,4.29,8.06,11.84-8.22,16.38,17.42,15,15-10.58,25.07,12.08,1.05,18.31L496.21,714l7.69-16.65,27.74-2.07,10.07,15.32,21.72-7.59-1.67-18.26,23-15.66,16.38,8.22,15-17.42-10.57-15,12.09-25.06L636,618.83l4.29-22.61Zm0,0-2.08-27.75,15.32-10.07L629.25,529,611,530.67l-15.65-23,8.22-16.38-17.43-15-15,10.57-25.07-12.07L545,456.48l-22.61-4.29-7.69,16.64L487,470.91l-10.07-15.32-21.72,7.59,1.67,18.26-23,15.66-16.39-8.23-15,17.43,10.57,15-1,2.15-3.38,7,4.59,0,49.33-.38a70.73,70.73,0,0,1,91.59-.68l3,0-.6,2.17a70.79,70.79,0,0,1-87.35,110.93H412.32l2.92,4.29,8.06,11.84-8.22,16.38,17.42,15,15-10.58,25.07,12.08,1.05,18.31L496.21,714l7.69-16.65,27.74-2.07,10.07,15.32,21.72-7.59-1.67-18.26,23-15.66,16.38,8.22,15-17.42-10.57-15,12.09-25.06L636,618.83l4.29-22.61Zm0,0-2.08-27.75,15.32-10.07L629.25,529,611,530.67l-15.65-23,8.22-16.38-17.43-15-15,10.57-25.07-12.07L545,456.48l-22.61-4.29-7.69,16.64L487,470.91l-10.07-15.32-21.72,7.59,1.67,18.26-23,15.66-16.39-8.23-15,17.43,10.57,15-1,2.15-3.38,7,4.59,0,49.33-.38a70.73,70.73,0,0,1,91.59-.68l3,0-.6,2.17a70.79,70.79,0,0,1-87.35,110.93H412.32l2.92,4.29,8.06,11.84-8.22,16.38,17.42,15,15-10.58,25.07,12.08,1.05,18.31L496.21,714l7.69-16.65,27.74-2.07,10.07,15.32,21.72-7.59-1.67-18.26,23-15.66,16.38,8.22,15-17.42-10.57-15,12.09-25.06L636,618.83l4.29-22.61Zm0,0-2.08-27.75,15.32-10.07L629.25,529,611,530.67l-15.65-23,8.22-16.38-17.43-15-15,10.57-25.07-12.07L545,456.48l-22.61-4.29-7.69,16.64L487,470.91l-10.07-15.32-21.72,7.59,1.67,18.26-23,15.66-16.39-8.23-15,17.43,10.57,15-1,2.15-3.38,7,4.59,0,49.33-.38a70.73,70.73,0,0,1,91.59-.68l3,0-.6,2.17a70.79,70.79,0,0,1-87.35,110.93H412.32l2.92,4.29,8.06,11.84-8.22,16.38,17.42,15,15-10.58,25.07,12.08,1.05,18.31L496.21,714l7.69-16.65,27.74-2.07,10.07,15.32,21.72-7.59-1.67-18.26,23-15.66,16.38,8.22,15-17.42-10.57-15,12.09-25.06L636,618.83l4.29-22.61Zm0,0-2.08-27.75,15.32-10.07L629.25,529,611,530.67l-15.65-23,8.22-16.38-17.43-15-15,10.57-25.07-12.07L545,456.48l-22.61-4.29-7.69,16.64L487,470.91l-10.07-15.32-21.72,7.59,1.67,18.26-23,15.66-16.39-8.23-15,17.43,10.57,15-1,2.15-3.38,7,4.59,0,49.33-.38a70.73,70.73,0,0,1,91.59-.68l3,0-.6,2.17a70.79,70.79,0,0,1-87.35,110.93H412.32l2.92,4.29,8.06,11.84-8.22,16.38,17.42,15,15-10.58,25.07,12.08,1.05,18.31L496.21,714l7.69-16.65,27.74-2.07,10.07,15.32,21.72-7.59-1.67-18.26,23-15.66,16.38,8.22,15-17.42-10.57-15,12.09-25.06L636,618.83l4.29-22.61Zm0,0-2.08-27.75,15.32-10.07L629.25,529,611,530.67l-15.65-23,8.22-16.38-17.43-15-15,10.57-25.07-12.07L545,456.48l-22.61-4.29-7.69,16.64L487,470.91l-10.07-15.32-21.72,7.59,1.67,18.26-23,15.66-16.39-8.23-15,17.43,10.57,15-1,2.15-3.38,7,4.59,0,49.33-.38a70.73,70.73,0,0,1,91.59-.68l3,0-.6,2.17a70.79,70.79,0,0,1-87.35,110.93H412.32l2.92,4.29,8.06,11.84-8.22,16.38,17.42,15,15-10.58,25.07,12.08,1.05,18.31L496.21,714l7.69-16.65,27.74-2.07,10.07,15.32,21.72-7.59-1.67-18.26,23-15.66,16.38,8.22,15-17.42-10.57-15,12.09-25.06L636,618.83l4.29-22.61Zm0,0-2.08-27.75,15.32-10.07L629.25,529,611,530.67l-15.65-23,8.22-16.38-17.43-15-15,10.57-25.07-12.07L545,456.48l-22.61-4.29-7.69,16.64L487,470.91l-10.07-15.32-21.72,7.59,1.67,18.26-23,15.66-16.39-8.23-15,17.43,10.57,15-1,2.15-3.38,7,4.59,0,49.33-.38a70.73,70.73,0,0,1,91.59-.68l3,0-.6,2.17a70.79,70.79,0,0,1-87.35,110.93H412.32l2.92,4.29,8.06,11.84-8.22,16.38,17.42,15,15-10.58,25.07,12.08,1.05,18.31L496.21,714l7.69-16.65,27.74-2.07,10.07,15.32,21.72-7.59-1.67-18.26,23-15.66,16.38,8.22,15-17.42-10.57-15,12.09-25.06L636,618.83l4.29-22.61Zm0,0-2.08-27.75,15.32-10.07L629.25,529,611,530.67l-15.65-23,8.22-16.38-17.43-15-15,10.57-25.07-12.07L545,456.48l-22.61-4.29-7.69,16.64L487,470.91l-10.07-15.32-21.72,7.59,1.67,18.26-23,15.66-16.39-8.23-15,17.43,10.57,15-1,2.15-3.38,7,4.59,0,49.33-.38a70.73,70.73,0,0,1,91.59-.68l3,0-.6,2.17a70.79,70.79,0,0,1-87.35,110.93H412.32l2.92,4.29,8.06,11.84-8.22,16.38,17.42,15,15-10.58,25.07,12.08,1.05,18.31L496.21,714l7.69-16.65,27.74-2.07,10.07,15.32,21.72-7.59-1.67-18.26,23-15.66,16.38,8.22,15-17.42-10.57-15,12.09-25.06L636,618.83l4.29-22.61Zm0,0-2.08-27.75,15.32-10.07L629.25,529,611,530.67l-15.65-23,8.22-16.38-17.43-15-15,10.57-25.07-12.07L545,456.48l-22.61-4.29-7.69,16.64L487,470.91l-10.07-15.32-21.72,7.59,1.67,18.26-23,15.66-16.39-8.23-15,17.43,10.57,15-1,2.15-3.38,7,4.59,0,49.33-.38a70.73,70.73,0,0,1,91.59-.68l3,0-.6,2.17a70.79,70.79,0,0,1-87.35,110.93H412.32l2.92,4.29,8.06,11.84-8.22,16.38,17.42,15,15-10.58,25.07,12.08,1.05,18.31L496.21,714l7.69-16.65,27.74-2.07,10.07,15.32,21.72-7.59-1.67-18.26,23-15.66,16.38,8.22,15-17.42-10.57-15,12.09-25.06L636,618.83l4.29-22.61Zm0,0-2.08-27.75,15.32-10.07L629.25,529,611,530.67l-15.65-23,8.22-16.38-17.43-15-15,10.57-25.07-12.07L545,456.48l-22.61-4.29-7.69,16.64L487,470.91l-10.07-15.32-21.72,7.59,1.67,18.26-23,15.66-16.39-8.23-15,17.43,10.57,15-1,2.15-3.38,7,4.59,0,49.33-.38a70.73,70.73,0,0,1,91.59-.68l3,0-.6,2.17a70.79,70.79,0,0,1-87.35,110.93H412.32l2.92,4.29,8.06,11.84-8.22,16.38,17.42,15,15-10.58,25.07,12.08,1.05,18.31L496.21,714l7.69-16.65,27.74-2.07,10.07,15.32,21.72-7.59-1.67-18.26,23-15.66,16.38,8.22,15-17.42-10.57-15,12.09-25.06L636,618.83l4.29-22.61Zm0,0-2.08-27.75,15.32-10.07L629.25,529,611,530.67l-15.65-23,8.22-16.38-17.43-15-15,10.57-25.07-12.07L545,456.48l-22.61-4.29-7.69,16.64L487,470.91l-10.07-15.32-21.72,7.59,1.67,18.26-23,15.66-16.39-8.23-15,17.43,10.57,15-1,2.15-3.38,7,4.59,0,49.33-.38a70.73,70.73,0,0,1,91.59-.68l3,0-.6,2.17a70.79,70.79,0,0,1-87.35,110.93H412.32l2.92,4.29,8.06,11.84-8.22,16.38,17.42,15,15-10.58,25.07,12.08,1.05,18.31L496.21,714l7.69-16.65,27.74-2.07,10.07,15.32,21.72-7.59-1.67-18.26,23-15.66,16.38,8.22,15-17.42-10.57-15,12.09-25.06L636,618.83l4.29-22.61Zm0,0-2.08-27.75,15.32-10.07L629.25,529,611,530.67l-15.65-23,8.22-16.38-17.43-15-15,10.57-25.07-12.07L545,456.48l-22.61-4.29-7.69,16.64L487,470.91l-10.07-15.32-21.72,7.59,1.67,18.26-23,15.66-16.39-8.23-15,17.43,10.57,15-1,2.15-3.38,7,4.59,0,49.33-.38a70.73,70.73,0,0,1,91.59-.68l3,0-.6,2.17a70.79,70.79,0,0,1-87.35,110.93H412.32l2.92,4.29,8.06,11.84-8.22,16.38,17.42,15,15-10.58,25.07,12.08,1.05,18.31L496.21,714l7.69-16.65,27.74-2.07,10.07,15.32,21.72-7.59-1.67-18.26,23-15.66,16.38,8.22,15-17.42-10.57-15,12.09-25.06L636,618.83l4.29-22.61Zm0,0-2.08-27.75,15.32-10.07L629.25,529,611,530.67l-15.65-23,8.22-16.38-17.43-15-15,10.57-25.07-12.07L545,456.48l-22.61-4.29-7.69,16.64L487,470.91l-10.07-15.32-21.72,7.59,1.67,18.26-23,15.66-16.39-8.23-15,17.43,10.57,15-1,2.15-3.38,7,4.59,0,49.33-.38a70.73,70.73,0,0,1,91.59-.68l3,0-.6,2.17a70.79,70.79,0,0,1-87.35,110.93H412.32l2.92,4.29,8.06,11.84-8.22,16.38,17.42,15,15-10.58,25.07,12.08,1.05,18.31L496.21,714l7.69-16.65,27.74-2.07,10.07,15.32,21.72-7.59-1.67-18.26,23-15.66,16.38,8.22,15-17.42-10.57-15,12.09-25.06L636,618.83l4.29-22.61Zm0,0-2.08-27.75,15.32-10.07L629.25,529,611,530.67l-15.65-23,8.22-16.38-17.43-15-15,10.57-25.07-12.07L545,456.48l-22.61-4.29-7.69,16.64L487,470.91l-10.07-15.32-21.72,7.59,1.67,18.26-23,15.66-16.39-8.23-15,17.43,10.57,15-1,2.15-3.38,7,4.59,0,49.33-.38a70.73,70.73,0,0,1,91.59-.68l3,0-.6,2.17a70.79,70.79,0,0,1-87.35,110.93H412.32l2.92,4.29,8.06,11.84-8.22,16.38,17.42,15,15-10.58,25.07,12.08,1.05,18.31L496.21,714l7.69-16.65,27.74-2.07,10.07,15.32,21.72-7.59-1.67-18.26,23-15.66,16.38,8.22,15-17.42-10.57-15,12.09-25.06L636,618.83l4.29-22.61Zm0,0-2.08-27.75,15.32-10.07L629.25,529,611,530.67l-15.65-23,8.22-16.38-17.43-15-15,10.57-25.07-12.07L545,456.48l-22.61-4.29-7.69,16.64L487,470.91l-10.07-15.32-21.72,7.59,1.67,18.26-23,15.66-16.39-8.23-15,17.43,10.57,15-1,2.15-3.38,7,4.59,0,49.33-.38a70.73,70.73,0,0,1,91.59-.68l3,0-.6,2.17a70.79,70.79,0,0,1-87.35,110.93H412.32l2.92,4.29,8.06,11.84-8.22,16.38,17.42,15,15-10.58,25.07,12.08,1.05,18.31L496.21,714l7.69-16.65,27.74-2.07,10.07,15.32,21.72-7.59-1.67-18.26,23-15.66,16.38,8.22,15-17.42-10.57-15,12.09-25.06L636,618.83l4.29-22.61Zm0,0-2.08-27.75,15.32-10.07L629.25,529,611,530.67l-15.65-23,8.22-16.38-17.43-15-15,10.57-25.07-12.07L545,456.48l-22.61-4.29-7.69,16.64L487,470.91l-10.07-15.32-21.72,7.59,1.67,18.26-23,15.66-16.39-8.23-15,17.43,10.57,15-1,2.15-3.38,7,4.59,0,49.33-.38a70.73,70.73,0,0,1,91.59-.68l3,0-.6,2.17a70.79,70.79,0,0,1-87.35,110.93H412.32l2.92,4.29,8.06,11.84-8.22,16.38,17.42,15,15-10.58,25.07,12.08,1.05,18.31L496.21,714l7.69-16.65,27.74-2.07,10.07,15.32,21.72-7.59-1.67-18.26,23-15.66,16.38,8.22,15-17.42-10.57-15,12.09-25.06L636,618.83l4.29-22.61Zm0,0-2.08-27.75,15.32-10.07L629.25,529,611,530.67l-15.65-23,8.22-16.38-17.43-15-15,10.57-25.07-12.07L545,456.48l-22.61-4.29-7.69,16.64L487,470.91l-10.07-15.32-21.72,7.59,1.67,18.26-23,15.66-16.39-8.23-15,17.43,10.57,15-1,2.15-3.38,7,4.59,0,49.33-.38a70.73,70.73,0,0,1,91.59-.68l3,0-.6,2.17a70.79,70.79,0,0,1-87.35,110.93H412.32l2.92,4.29,8.06,11.84-8.22,16.38,17.42,15,15-10.58,25.07,12.08,1.05,18.31L496.21,714l7.69-16.65,27.74-2.07,10.07,15.32,21.72-7.59-1.67-18.26,23-15.66,16.38,8.22,15-17.42-10.57-15,12.09-25.06L636,618.83l4.29-22.61Zm385-407.12V239.2a3.4,3.4,0,0,1-3.4,3.35h-2.06a3.38,3.38,0,0,1-3.39-3.35V181.42H961.33v23.13a3.07,3.07,0,0,1-3.1,3h-2.65a3.07,3.07,0,0,1-3.1-3V181.42H914.11V239.2a3.39,3.39,0,0,1-3.4,3.35h-2.06a3.39,3.39,0,0,1-3.39-3.35V181.42H866.89v23.13a3.08,3.08,0,0,1-3.11,3h-2.65a3.08,3.08,0,0,1-3.1-3V181.42H825.56v59.23a3.38,3.38,0,0,1-3.39,3.35h-2.06a3.4,3.4,0,0,1-3.4-3.35V181.42H778.35V206a3.08,3.08,0,0,1-3.11,3.06H772.6a3.08,3.08,0,0,1-3.11-3.06V181.42H734.08v59.23a3.4,3.4,0,0,1-3.39,3.35h-2.08a3.4,3.4,0,0,1-3.39-3.35V181.42H686.85V206a3.07,3.07,0,0,1-3.09,3.06H681.1A3.08,3.08,0,0,1,678,206V181.42H642.11V238.5a3.4,3.4,0,0,1-3.39,3.38h-2.07a3.4,3.4,0,0,1-3.39-3.38V181.42H594.89v22.46a3.07,3.07,0,0,1-3.1,3.05h-2.66a3.06,3.06,0,0,1-3.09-3.05V181.42H547.66V238.5a3.4,3.4,0,0,1-3.39,3.38H542.2a3.4,3.4,0,0,1-3.39-3.38V181.42H500.45v22.46a3.08,3.08,0,0,1-3.11,3.05h-2.66a3.06,3.06,0,0,1-3.09-3.05V181.42H459.12V240a3.4,3.4,0,0,1-3.39,3.37h-2.07a3.4,3.4,0,0,1-3.39-3.37V181.42H411.91v23.91a3.09,3.09,0,0,1-3.11,3.06h-2.66a3.09,3.09,0,0,1-3.1-3.06V181.42H367.63V240a3.4,3.4,0,0,1-3.4,3.37h-2.06a3.4,3.4,0,0,1-3.4-3.37V181.42H341l0,.11h0l-17.09,64.09-6.92,26h-.21L315,278l-.89,3.3a3.15,3.15,0,0,1,.11.44h0L309.87,298l-.12.42-.74,2.79h9.26q1.08,6.29,1.83,12.68c.14,1.17.27,2.34.39,3.52,0,.28.06.56.08.84.11,1.08.21,2.16.31,3.25s.19,2.28.28,3.42l.12,1.7a.34.34,0,0,1,0,.1c0,.1,0,.19,0,.29.06.85.11,1.71.16,2.56.07,1.31.14,2.62.2,3.93v.07c0,.94.08,1.88.11,2.83,0,.08,0,.15,0,.23s0,.19,0,.29v.16c0,.22,0,.44,0,.67s0,.63,0,.95c0,.69,0,1.39.05,2.09,0,.31,0,.63,0,.95q0,1.88,0,3.75v0c0,1,0,2.08,0,3.12,0,.39,0,.77,0,1.16,0,1.2,0,2.39-.07,3.59v0c0,1.15-.07,2.31-.12,3.46l0,.69a.66.66,0,0,1,0,.14c0,.11,0,.22,0,.33,0,.76-.06,1.52-.11,2.28,0,.05,0,.11,0,.16l-.06,1.13q-.21,3.7-.52,7.42c-.07.84-.14,1.68-.22,2.52s-.15,1.68-.24,2.52c-.12,1.25-.25,2.49-.39,3.74-.11,1-.23,2-.35,2.94q-.08.7-.18,1.41l0,.28-.09.69c-.12.94-.25,1.88-.38,2.82,0,0,0,0,0,.06q-.39,2.81-.85,5.63c-.07.47-.15.94-.23,1.41s-.16,1-.25,1.5c-.16,1-.33,2-.51,3-.21,1.16-.42,2.33-.65,3.49-.06.33-.12.66-.19,1-.22,1.13-.44,2.26-.68,3.4-.29,1.42-.6,2.83-.91,4.25h-7.9a298.27,298.27,0,0,0,5.4-32c.3-2.68.57-5.35.79-8,.09-1,.17-2,.24-3,.05-.59.09-1.2.13-1.8,0,0,0-.09,0-.14l0-.44c.06-.87.11-1.75.16-2.63.08-1.34.15-2.67.2-4s.1-2.46.14-3.69c0-.27,0-.54,0-.81q0-1.5.06-3c0-.36,0-.71,0-1.07q0-1.71,0-3.42c0-1.28,0-2.57,0-3.85s0-2.57-.08-3.85c0-.14,0-.29,0-.43,0-1.09-.07-2.18-.12-3.26,0-.16,0-.31,0-.46q-.06-1.52-.15-3c0-.17,0-.33,0-.5h0c-.07-1.18-.14-2.35-.22-3.52s-.16-2.2-.25-3.3l0-.32c0-.06,0-.11,0-.17-.07-.81-.14-1.61-.22-2.42,0,0,0-.05,0-.08-.06-.68-.13-1.37-.2-2.05s-.16-1.57-.25-2.35-.2-1.78-.31-2.66c-.05-.43-.1-.87-.16-1.3,0-.05,0-.11,0-.16s0-.09,0-.14c-.06-.56-.15-1.11-.22-1.67s-.18-1.36-.28-2c-.12-.85-.25-1.7-.38-2.55s-.28-1.81-.43-2.72c-.8.24-1.58.47-2.39.67l-.15,0-1.53,5.7-27,100.48h0l-20,72.33-13.28,49.46-.2-.76-.24.85L217.53,426.64l-3.31-12.27-7-26.13a0,0,0,0,1,0,0L203.88,376l-10.64-39.49-2.48-9.2q-2.79,4.47-5.41,9.07a303.58,303.58,0,0,0-35.1,99.21c-.23,1.35-.46,2.7-.67,4.05a338.62,338.62,0,0,0-3.94,64.3,355.52,355.52,0,0,0,3.16,37l68.91,22.88q5.23-4.61,10.21-9.5c3.87-3.78,7.6-7.7,11.22-11.72q4.91-5.45,9.5-11.15h0l9.69-.06c-4.19,5.44-8.59,10.71-13.14,15.78l-1.32,2c16.92,14.9,24.21,57.2,17.55,100.52,29.19-30.46,48.35-74.69,43.6-118.64l7.61,0c5.06,49.79-18.78,99.73-53.43,131.43l-.39.35-8.44,4.24,1.6-7.69c10.29-48.91,1.39-92.61-13.58-104.89-2,2.14-4.15,4.24-6.27,6.29q-1.56,1.53-3.15,3l-.08.07c-1.07,1-2.14,2-3.23,3-.33.31-.65.61-1,.9l.78.26,5,1.68-7.16,21.54-1.92-.64-14.61-4.84-8.46,25.53-.11.33-.65-.22h0L142.2,593l6.94,25.39L153,632.56,156.85,621a3.78,3.78,0,1,1,7.18,2.38l-7.42,22.35,13.49,49.35,9.39,34.33,8.75,32,433,2,9.1-33,38.9-141,16-57.92,0-.09h93c-2.12-1.88-34-31.1-11.84-78.92C746,459.7,722.49,471.14,695.63,490l3.48-12.71c17.66-11.43,60.54-37.25,139.61-44.61,19.12-1.78,30.18-9,35.66-19.29l-133.9,0-23.8-.23-314.44-3.07L390.56,410l.09-.34L402.24,367l17.9-65.83,5.1-18.75L1039,272h.67l22.56-90.53ZM224.39,613.52a3.79,3.79,0,0,1,2.6,3.59,3.54,3.54,0,0,1-.2,1.19l-15,45.26a3.79,3.79,0,0,1-7.19-2.39l15-45.25A3.79,3.79,0,0,1,224.39,613.52Zm-54.31,61.32,14.31-43.1a3.79,3.79,0,0,1,7.38,1.19,3.87,3.87,0,0,1-.2,1.2l-14.31,43.09a3.78,3.78,0,1,1-7.18-2.38ZM402.24,515.46,395.53,506l6.71-7.79L416.14,482l17.33,8.7,17.64-12-1.75-19.31L479.17,449l10.64,16.2,21.3-1.58L519.24,446l31,5.88,1.12,19.36,19.25,9.28,15.83-11.19,23.93,20.61-8.7,17.32,12,17.65,19.3-1.76L643.44,553l-16.2,10.64,1.58,21.31L646.44,593l-5.89,31-19.36,1.12-9.27,19.25,11.18,15.83-20.61,23.92-17.32-8.69-17.65,12,1.76,19.3-29.81,10.42L528.83,701l-21.3,1.58-8.14,17.61-31-5.88L467.25,695,448,685.71,432.17,696.9l-23.92-20.61L416.94,659l-7.87-11.54-3.4-5H339.36L369,530.72h.29l33-.25h.31l0-.05,3.37-7,.78-1.62Zm9.79,8-3.38,7,4.59,0,49.33-.38a70.73,70.73,0,0,1,91.59-.68l3,0-.6,2.17a70.79,70.79,0,0,1-87.35,110.93H412.32l2.92,4.29,8.06,11.84-8.22,16.38,17.42,15,15-10.58,25.07,12.08,1.05,18.31L496.21,714l7.69-16.65,27.74-2.07,10.07,15.32,21.72-7.59-1.67-18.26,23-15.66,16.38,8.22,15-17.42-10.57-15,12.09-25.06L636,618.83l4.29-22.61-16.64-7.68-2.08-27.75,15.32-10.07L629.25,529,611,530.67l-15.65-23,8.22-16.38-17.43-15-15,10.57-25.07-12.07L545,456.48l-22.61-4.29-7.69,16.64L487,470.91l-10.07-15.32-21.72,7.59,1.67,18.26-23,15.66-16.39-8.23-15,17.43,10.57,15ZM623.6,588.54l-2.08-27.75,15.32-10.07L629.25,529,611,530.67l-15.65-23,8.22-16.38-17.43-15-15,10.57-25.07-12.07L545,456.48l-22.61-4.29-7.69,16.64L487,470.91l-10.07-15.32-21.72,7.59,1.67,18.26-23,15.66-16.39-8.23-15,17.43,10.57,15-1,2.15-3.38,7,4.59,0,49.33-.38a70.73,70.73,0,0,1,91.59-.68l3,0-.6,2.17a70.79,70.79,0,0,1-87.35,110.93H412.32l2.92,4.29,8.06,11.84-8.22,16.38,17.42,15,15-10.58,25.07,12.08,1.05,18.31L496.21,714l7.69-16.65,27.74-2.07,10.07,15.32,21.72-7.59-1.67-18.26,23-15.66,16.38,8.22,15-17.42-10.57-15,12.09-25.06L636,618.83l4.29-22.61Zm0,0-2.08-27.75,15.32-10.07L629.25,529,611,530.67l-15.65-23,8.22-16.38-17.43-15-15,10.57-25.07-12.07L545,456.48l-22.61-4.29-7.69,16.64L487,470.91l-10.07-15.32-21.72,7.59,1.67,18.26-23,15.66-16.39-8.23-15,17.43,10.57,15-1,2.15-3.38,7,4.59,0,49.33-.38a70.73,70.73,0,0,1,91.59-.68l3,0-.6,2.17a70.79,70.79,0,0,1-87.35,110.93H412.32l2.92,4.29,8.06,11.84-8.22,16.38,17.42,15,15-10.58,25.07,12.08,1.05,18.31L496.21,714l7.69-16.65,27.74-2.07,10.07,15.32,21.72-7.59-1.67-18.26,23-15.66,16.38,8.22,15-17.42-10.57-15,12.09-25.06L636,618.83l4.29-22.61Zm0,0-2.08-27.75,15.32-10.07L629.25,529,611,530.67l-15.65-23,8.22-16.38-17.43-15-15,10.57-25.07-12.07L545,456.48l-22.61-4.29-7.69,16.64L487,470.91l-10.07-15.32-21.72,7.59,1.67,18.26-23,15.66-16.39-8.23-15,17.43,10.57,15-1,2.15-3.38,7,4.59,0,49.33-.38a70.73,70.73,0,0,1,91.59-.68l3,0-.6,2.17a70.79,70.79,0,0,1-87.35,110.93H412.32l2.92,4.29,8.06,11.84-8.22,16.38,17.42,15,15-10.58,25.07,12.08,1.05,18.31L496.21,714l7.69-16.65,27.74-2.07,10.07,15.32,21.72-7.59-1.67-18.26,23-15.66,16.38,8.22,15-17.42-10.57-15,12.09-25.06L636,618.83l4.29-22.61Zm0,0-2.08-27.75,15.32-10.07L629.25,529,611,530.67l-15.65-23,8.22-16.38-17.43-15-15,10.57-25.07-12.07L545,456.48l-22.61-4.29-7.69,16.64L487,470.91l-10.07-15.32-21.72,7.59,1.67,18.26-23,15.66-16.39-8.23-15,17.43,10.57,15-1,2.15-3.38,7,4.59,0,49.33-.38a70.73,70.73,0,0,1,91.59-.68l3,0-.6,2.17a70.79,70.79,0,0,1-87.35,110.93H412.32l2.92,4.29,8.06,11.84-8.22,16.38,17.42,15,15-10.58,25.07,12.08,1.05,18.31L496.21,714l7.69-16.65,27.74-2.07,10.07,15.32,21.72-7.59-1.67-18.26,23-15.66,16.38,8.22,15-17.42-10.57-15,12.09-25.06L636,618.83l4.29-22.61Zm0,0-2.08-27.75,15.32-10.07L629.25,529,611,530.67l-15.65-23,8.22-16.38-17.43-15-15,10.57-25.07-12.07L545,456.48l-22.61-4.29-7.69,16.64L487,470.91l-10.07-15.32-21.72,7.59,1.67,18.26-23,15.66-16.39-8.23-15,17.43,10.57,15-1,2.15-3.38,7,4.59,0,49.33-.38a70.73,70.73,0,0,1,91.59-.68l3,0-.6,2.17a70.79,70.79,0,0,1-87.35,110.93H412.32l2.92,4.29,8.06,11.84-8.22,16.38,17.42,15,15-10.58,25.07,12.08,1.05,18.31L496.21,714l7.69-16.65,27.74-2.07,10.07,15.32,21.72-7.59-1.67-18.26,23-15.66,16.38,8.22,15-17.42-10.57-15,12.09-25.06L636,618.83l4.29-22.61Zm0,0-2.08-27.75,15.32-10.07L629.25,529,611,530.67l-15.65-23,8.22-16.38-17.43-15-15,10.57-25.07-12.07L545,456.48l-22.61-4.29-7.69,16.64L487,470.91l-10.07-15.32-21.72,7.59,1.67,18.26-23,15.66-16.39-8.23-15,17.43,10.57,15-1,2.15-3.38,7,4.59,0,49.33-.38a70.73,70.73,0,0,1,91.59-.68l3,0-.6,2.17a70.79,70.79,0,0,1-87.35,110.93H412.32l2.92,4.29,8.06,11.84-8.22,16.38,17.42,15,15-10.58,25.07,12.08,1.05,18.31L496.21,714l7.69-16.65,27.74-2.07,10.07,15.32,21.72-7.59-1.67-18.26,23-15.66,16.38,8.22,15-17.42-10.57-15,12.09-25.06L636,618.83l4.29-22.61Zm0,0-2.08-27.75,15.32-10.07L629.25,529,611,530.67l-15.65-23,8.22-16.38-17.43-15-15,10.57-25.07-12.07L545,456.48l-22.61-4.29-7.69,16.64L487,470.91l-10.07-15.32-21.72,7.59,1.67,18.26-23,15.66-16.39-8.23-15,17.43,10.57,15-1,2.15-3.38,7,4.59,0,49.33-.38a70.73,70.73,0,0,1,91.59-.68l3,0-.6,2.17a70.79,70.79,0,0,1-87.35,110.93H412.32l2.92,4.29,8.06,11.84-8.22,16.38,17.42,15,15-10.58,25.07,12.08,1.05,18.31L496.21,714l7.69-16.65,27.74-2.07,10.07,15.32,21.72-7.59-1.67-18.26,23-15.66,16.38,8.22,15-17.42-10.57-15,12.09-25.06L636,618.83l4.29-22.61Zm0,0-2.08-27.75,15.32-10.07L629.25,529,611,530.67l-15.65-23,8.22-16.38-17.43-15-15,10.57-25.07-12.07L545,456.48l-22.61-4.29-7.69,16.64L487,470.91l-10.07-15.32-21.72,7.59,1.67,18.26-23,15.66-16.39-8.23-15,17.43,10.57,15-1,2.15-3.38,7,4.59,0,49.33-.38a70.73,70.73,0,0,1,91.59-.68l3,0-.6,2.17a70.79,70.79,0,0,1-87.35,110.93H412.32l2.92,4.29,8.06,11.84-8.22,16.38,17.42,15,15-10.58,25.07,12.08,1.05,18.31L496.21,714l7.69-16.65,27.74-2.07,10.07,15.32,21.72-7.59-1.67-18.26,23-15.66,16.38,8.22,15-17.42-10.57-15,12.09-25.06L636,618.83l4.29-22.61Zm0,0-2.08-27.75,15.32-10.07L629.25,529,611,530.67l-15.65-23,8.22-16.38-17.43-15-15,10.57-25.07-12.07L545,456.48l-22.61-4.29-7.69,16.64L487,470.91l-10.07-15.32-21.72,7.59,1.67,18.26-23,15.66-16.39-8.23-15,17.43,10.57,15-1,2.15-3.38,7,4.59,0,49.33-.38a70.73,70.73,0,0,1,91.59-.68l3,0-.6,2.17a70.79,70.79,0,0,1-87.35,110.93H412.32l2.92,4.29,8.06,11.84-8.22,16.38,17.42,15,15-10.58,25.07,12.08,1.05,18.31L496.21,714l7.69-16.65,27.74-2.07,10.07,15.32,21.72-7.59-1.67-18.26,23-15.66,16.38,8.22,15-17.42-10.57-15,12.09-25.06L636,618.83l4.29-22.61Zm0,0-2.08-27.75,15.32-10.07L629.25,529,611,530.67l-15.65-23,8.22-16.38-17.43-15-15,10.57-25.07-12.07L545,456.48l-22.61-4.29-7.69,16.64L487,470.91l-10.07-15.32-21.72,7.59,1.67,18.26-23,15.66-16.39-8.23-15,17.43,10.57,15-1,2.15-3.38,7,4.59,0,49.33-.38a70.73,70.73,0,0,1,91.59-.68l3,0-.6,2.17a70.79,70.79,0,0,1-87.35,110.93H412.32l2.92,4.29,8.06,11.84-8.22,16.38,17.42,15,15-10.58,25.07,12.08,1.05,18.31L496.21,714l7.69-16.65,27.74-2.07,10.07,15.32,21.72-7.59-1.67-18.26,23-15.66,16.38,8.22,15-17.42-10.57-15,12.09-25.06L636,618.83l4.29-22.61Zm0,0-2.08-27.75,15.32-10.07L629.25,529,611,530.67l-15.65-23,8.22-16.38-17.43-15-15,10.57-25.07-12.07L545,456.48l-22.61-4.29-7.69,16.64L487,470.91l-10.07-15.32-21.72,7.59,1.67,18.26-23,15.66-16.39-8.23-15,17.43,10.57,15-1,2.15-3.38,7,4.59,0,49.33-.38a70.73,70.73,0,0,1,91.59-.68l3,0-.6,2.17a70.79,70.79,0,0,1-87.35,110.93H412.32l2.92,4.29,8.06,11.84-8.22,16.38,17.42,15,15-10.58,25.07,12.08,1.05,18.31L496.21,714l7.69-16.65,27.74-2.07,10.07,15.32,21.72-7.59-1.67-18.26,23-15.66,16.38,8.22,15-17.42-10.57-15,12.09-25.06L636,618.83l4.29-22.61Zm0,0-2.08-27.75,15.32-10.07L629.25,529,611,530.67l-15.65-23,8.22-16.38-17.43-15-15,10.57-25.07-12.07L545,456.48l-22.61-4.29-7.69,16.64L487,470.91l-10.07-15.32-21.72,7.59,1.67,18.26-23,15.66-16.39-8.23-15,17.43,10.57,15-1,2.15-3.38,7,4.59,0,49.33-.38a70.73,70.73,0,0,1,91.59-.68l3,0-.6,2.17a70.79,70.79,0,0,1-87.35,110.93H412.32l2.92,4.29,8.06,11.84-8.22,16.38,17.42,15,15-10.58,25.07,12.08,1.05,18.31L496.21,714l7.69-16.65,27.74-2.07,10.07,15.32,21.72-7.59-1.67-18.26,23-15.66,16.38,8.22,15-17.42-10.57-15,12.09-25.06L636,618.83l4.29-22.61Zm0,0-2.08-27.75,15.32-10.07L629.25,529,611,530.67l-15.65-23,8.22-16.38-17.43-15-15,10.57-25.07-12.07L545,456.48l-22.61-4.29-7.69,16.64L487,470.91l-10.07-15.32-21.72,7.59,1.67,18.26-23,15.66-16.39-8.23-15,17.43,10.57,15-1,2.15-3.38,7,4.59,0,49.33-.38a70.73,70.73,0,0,1,91.59-.68l3,0-.6,2.17a70.79,70.79,0,0,1-87.35,110.93H412.32l2.92,4.29,8.06,11.84-8.22,16.38,17.42,15,15-10.58,25.07,12.08,1.05,18.31L496.21,714l7.69-16.65,27.74-2.07,10.07,15.32,21.72-7.59-1.67-18.26,23-15.66,16.38,8.22,15-17.42-10.57-15,12.09-25.06L636,618.83l4.29-22.61Zm0,0-2.08-27.75,15.32-10.07L629.25,529,611,530.67l-15.65-23,8.22-16.38-17.43-15-15,10.57-25.07-12.07L545,456.48l-22.61-4.29-7.69,16.64L487,470.91l-10.07-15.32-21.72,7.59,1.67,18.26-23,15.66-16.39-8.23-15,17.43,10.57,15-1,2.15-3.38,7,4.59,0,49.33-.38a70.73,70.73,0,0,1,91.59-.68l3,0-.6,2.17a70.79,70.79,0,0,1-87.35,110.93H412.32l2.92,4.29,8.06,11.84-8.22,16.38,17.42,15,15-10.58,25.07,12.08,1.05,18.31L496.21,714l7.69-16.65,27.74-2.07,10.07,15.32,21.72-7.59-1.67-18.26,23-15.66,16.38,8.22,15-17.42-10.57-15,12.09-25.06L636,618.83l4.29-22.61Zm0,0-2.08-27.75,15.32-10.07L629.25,529,611,530.67l-15.65-23,8.22-16.38-17.43-15-15,10.57-25.07-12.07L545,456.48l-22.61-4.29-7.69,16.64L487,470.91l-10.07-15.32-21.72,7.59,1.67,18.26-23,15.66-16.39-8.23-15,17.43,10.57,15-1,2.15-3.38,7,4.59,0,49.33-.38a70.73,70.73,0,0,1,91.59-.68l3,0-.6,2.17a70.79,70.79,0,0,1-87.35,110.93H412.32l2.92,4.29,8.06,11.84-8.22,16.38,17.42,15,15-10.58,25.07,12.08,1.05,18.31L496.21,714l7.69-16.65,27.74-2.07,10.07,15.32,21.72-7.59-1.67-18.26,23-15.66,16.38,8.22,15-17.42-10.57-15,12.09-25.06L636,618.83l4.29-22.61Zm0,0-2.08-27.75,15.32-10.07L629.25,529,611,530.67l-15.65-23,8.22-16.38-17.43-15-15,10.57-25.07-12.07L545,456.48l-22.61-4.29-7.69,16.64L487,470.91l-10.07-15.32-21.72,7.59,1.67,18.26-23,15.66-16.39-8.23-15,17.43,10.57,15-1,2.15-3.38,7,4.59,0,49.33-.38a70.73,70.73,0,0,1,91.59-.68l3,0-.6,2.17a70.79,70.79,0,0,1-87.35,110.93H412.32l2.92,4.29,8.06,11.84-8.22,16.38,17.42,15,15-10.58,25.07,12.08,1.05,18.31L496.21,714l7.69-16.65,27.74-2.07,10.07,15.32,21.72-7.59-1.67-18.26,23-15.66,16.38,8.22,15-17.42-10.57-15,12.09-25.06L636,618.83l4.29-22.61Zm0,0-2.08-27.75,15.32-10.07L629.25,529,611,530.67l-15.65-23,8.22-16.38-17.43-15-15,10.57-25.07-12.07L545,456.48l-22.61-4.29-7.69,16.64L487,470.91l-10.07-15.32-21.72,7.59,1.67,18.26-23,15.66-16.39-8.23-15,17.43,10.57,15-1,2.15-3.38,7,4.59,0,49.33-.38a70.73,70.73,0,0,1,91.59-.68l3,0-.6,2.17a70.79,70.79,0,0,1-87.35,110.93H412.32l2.92,4.29,8.06,11.84-8.22,16.38,17.42,15,15-10.58,25.07,12.08,1.05,18.31L496.21,714l7.69-16.65,27.74-2.07,10.07,15.32,21.72-7.59-1.67-18.26,23-15.66,16.38,8.22,15-17.42-10.57-15,12.09-25.06L636,618.83l4.29-22.61Zm0,0-2.08-27.75,15.32-10.07L629.25,529,611,530.67l-15.65-23,8.22-16.38-17.43-15-15,10.57-25.07-12.07L545,456.48l-22.61-4.29-7.69,16.64L487,470.91l-10.07-15.32-21.72,7.59,1.67,18.26-23,15.66-16.39-8.23-15,17.43,10.57,15-1,2.15-3.38,7,4.59,0,49.33-.38a70.73,70.73,0,0,1,91.59-.68l3,0-.6,2.17a70.79,70.79,0,0,1-87.35,110.93H412.32l2.92,4.29,8.06,11.84-8.22,16.38,17.42,15,15-10.58,25.07,12.08,1.05,18.31L496.21,714l7.69-16.65,27.74-2.07,10.07,15.32,21.72-7.59-1.67-18.26,23-15.66,16.38,8.22,15-17.42-10.57-15,12.09-25.06L636,618.83l4.29-22.61Zm0,0-2.08-27.75,15.32-10.07L629.25,529,611,530.67l-15.65-23,8.22-16.38-17.43-15-15,10.57-25.07-12.07L545,456.48l-22.61-4.29-7.69,16.64L487,470.91l-10.07-15.32-21.72,7.59,1.67,18.26-23,15.66-16.39-8.23-15,17.43,10.57,15-1,2.15-3.38,7,4.59,0,49.33-.38a70.73,70.73,0,0,1,91.59-.68l3,0-.6,2.17a70.79,70.79,0,0,1-87.35,110.93H412.32l2.92,4.29,8.06,11.84-8.22,16.38,17.42,15,15-10.58,25.07,12.08,1.05,18.31L496.21,714l7.69-16.65,27.74-2.07,10.07,15.32,21.72-7.59-1.67-18.26,23-15.66,16.38,8.22,15-17.42-10.57-15,12.09-25.06L636,618.83l4.29-22.61Zm0,0-2.08-27.75,15.32-10.07L629.25,529,611,530.67l-15.65-23,8.22-16.38-17.43-15-15,10.57-25.07-12.07L545,456.48l-22.61-4.29-7.69,16.64L487,470.91l-10.07-15.32-21.72,7.59,1.67,18.26-23,15.66-16.39-8.23-15,17.43,10.57,15-1,2.15-3.38,7,4.59,0,49.33-.38a70.73,70.73,0,0,1,91.59-.68l3,0-.6,2.17a70.79,70.79,0,0,1-87.35,110.93H412.32l2.92,4.29,8.06,11.84-8.22,16.38,17.42,15,15-10.58,25.07,12.08,1.05,18.31L496.21,714l7.69-16.65,27.74-2.07,10.07,15.32,21.72-7.59-1.67-18.26,23-15.66,16.38,8.22,15-17.42-10.57-15,12.09-25.06L636,618.83l4.29-22.61Zm0,0-2.08-27.75,15.32-10.07L629.25,529,611,530.67l-15.65-23,8.22-16.38-17.43-15-15,10.57-25.07-12.07L545,456.48l-22.61-4.29-7.69,16.64L487,470.91l-10.07-15.32-21.72,7.59,1.67,18.26-23,15.66-16.39-8.23-15,17.43,10.57,15-1,2.15-3.38,7,4.59,0,49.33-.38a70.73,70.73,0,0,1,91.59-.68l3,0-.6,2.17a70.79,70.79,0,0,1-87.35,110.93H412.32l2.92,4.29,8.06,11.84-8.22,16.38,17.42,15,15-10.58,25.07,12.08,1.05,18.31L496.21,714l7.69-16.65,27.74-2.07,10.07,15.32,21.72-7.59-1.67-18.26,23-15.66,16.38,8.22,15-17.42-10.57-15,12.09-25.06L636,618.83l4.29-22.61Zm0,0-2.08-27.75,15.32-10.07L629.25,529,611,530.67l-15.65-23,8.22-16.38-17.43-15-15,10.57-25.07-12.07L545,456.48l-22.61-4.29-7.69,16.64L487,470.91l-10.07-15.32-21.72,7.59,1.67,18.26-23,15.66-16.39-8.23-15,17.43,10.57,15-1,2.15-3.38,7,4.59,0,49.33-.38a70.73,70.73,0,0,1,91.59-.68l3,0-.6,2.17a70.79,70.79,0,0,1-87.35,110.93H412.32l2.92,4.29,8.06,11.84-8.22,16.38,17.42,15,15-10.58,25.07,12.08,1.05,18.31L496.21,714l7.69-16.65,27.74-2.07,10.07,15.32,21.72-7.59-1.67-18.26,23-15.66,16.38,8.22,15-17.42-10.57-15,12.09-25.06L636,618.83l4.29-22.61Zm0,0-2.08-27.75,15.32-10.07L629.25,529,611,530.67l-15.65-23,8.22-16.38-17.43-15-15,10.57-25.07-12.07L545,456.48l-22.61-4.29-7.69,16.64L487,470.91l-10.07-15.32-21.72,7.59,1.67,18.26-23,15.66-16.39-8.23-15,17.43,10.57,15-1,2.15-3.38,7,4.59,0,49.33-.38a70.73,70.73,0,0,1,91.59-.68l3,0-.6,2.17a70.79,70.79,0,0,1-87.35,110.93H412.32l2.92,4.29,8.06,11.84-8.22,16.38,17.42,15,15-10.58,25.07,12.08,1.05,18.31L496.21,714l7.69-16.65,27.74-2.07,10.07,15.32,21.72-7.59-1.67-18.26,23-15.66,16.38,8.22,15-17.42-10.57-15,12.09-25.06L636,618.83l4.29-22.61Zm0,0-2.08-27.75,15.32-10.07L629.25,529,611,530.67l-15.65-23,8.22-16.38-17.43-15-15,10.57-25.07-12.07L545,456.48l-22.61-4.29-7.69,16.64L487,470.91l-10.07-15.32-21.72,7.59,1.67,18.26-23,15.66-16.39-8.23-15,17.43,10.57,15-1,2.15-3.38,7,4.59,0,49.33-.38a70.73,70.73,0,0,1,91.59-.68l3,0-.6,2.17a70.79,70.79,0,0,1-87.35,110.93H412.32l2.92,4.29,8.06,11.84-8.22,16.38,17.42,15,15-10.58,25.07,12.08,1.05,18.31L496.21,714l7.69-16.65,27.74-2.07,10.07,15.32,21.72-7.59-1.67-18.26,23-15.66,16.38,8.22,15-17.42-10.57-15,12.09-25.06L636,618.83l4.29-22.61Zm0,0-2.08-27.75,15.32-10.07L629.25,529,611,530.67l-15.65-23,8.22-16.38-17.43-15-15,10.57-25.07-12.07L545,456.48l-22.61-4.29-7.69,16.64L487,470.91l-10.07-15.32-21.72,7.59,1.67,18.26-23,15.66-16.39-8.23-15,17.43,10.57,15-1,2.15-3.38,7,4.59,0,49.33-.38a70.73,70.73,0,0,1,91.59-.68l3,0-.6,2.17a70.79,70.79,0,0,1-87.35,110.93H412.32l2.92,4.29,8.06,11.84-8.22,16.38,17.42,15,15-10.58,25.07,12.08,1.05,18.31L496.21,714l7.69-16.65,27.74-2.07,10.07,15.32,21.72-7.59-1.67-18.26,23-15.66,16.38,8.22,15-17.42-10.57-15,12.09-25.06L636,618.83l4.29-22.61Zm0,0-2.08-27.75,15.32-10.07L629.25,529,611,530.67l-15.65-23,8.22-16.38-17.43-15-15,10.57-25.07-12.07L545,456.48l-22.61-4.29-7.69,16.64L487,470.91l-10.07-15.32-21.72,7.59,1.67,18.26-23,15.66-16.39-8.23-15,17.43,10.57,15-1,2.15-3.38,7,4.59,0,49.33-.38a70.73,70.73,0,0,1,91.59-.68l3,0-.6,2.17a70.79,70.79,0,0,1-87.35,110.93H412.32l2.92,4.29,8.06,11.84-8.22,16.38,17.42,15,15-10.58,25.07,12.08,1.05,18.31L496.21,714l7.69-16.65,27.74-2.07,10.07,15.32,21.72-7.59-1.67-18.26,23-15.66,16.38,8.22,15-17.42-10.57-15,12.09-25.06L636,618.83l4.29-22.61Zm0,0-2.08-27.75,15.32-10.07L629.25,529,611,530.67l-15.65-23,8.22-16.38-17.43-15-15,10.57-25.07-12.07L545,456.48l-22.61-4.29-7.69,16.64L487,470.91l-10.07-15.32-21.72,7.59,1.67,18.26-23,15.66-16.39-8.23-15,17.43,10.57,15-1,2.15-3.38,7,4.59,0,49.33-.38a70.73,70.73,0,0,1,91.59-.68l3,0-.6,2.17a70.79,70.79,0,0,1-87.35,110.93H412.32l2.92,4.29,8.06,11.84-8.22,16.38,17.42,15,15-10.58,25.07,12.08,1.05,18.31L496.21,714l7.69-16.65,27.74-2.07,10.07,15.32,21.72-7.59-1.67-18.26,23-15.66,16.38,8.22,15-17.42-10.57-15,12.09-25.06L636,618.83l4.29-22.61Zm0,0-2.08-27.75,15.32-10.07L629.25,529,611,530.67l-15.65-23,8.22-16.38-17.43-15-15,10.57-25.07-12.07L545,456.48l-22.61-4.29-7.69,16.64L487,470.91l-10.07-15.32-21.72,7.59,1.67,18.26-23,15.66-16.39-8.23-15,17.43,10.57,15-1,2.15-3.38,7,4.59,0,49.33-.38a70.73,70.73,0,0,1,91.59-.68l3,0-.6,2.17a70.79,70.79,0,0,1-87.35,110.93H412.32l2.92,4.29,8.06,11.84-8.22,16.38,17.42,15,15-10.58,25.07,12.08,1.05,18.31L496.21,714l7.69-16.65,27.74-2.07,10.07,15.32,21.72-7.59-1.67-18.26,23-15.66,16.38,8.22,15-17.42-10.57-15,12.09-25.06L636,618.83l4.29-22.61Z"/><path class="cls-1" d="M866.89,181.42v23.13a3.08,3.08,0,0,1-3.11,3h-2.65a3.08,3.08,0,0,1-3.1-3V181.42Z"/><path class="cls-1" d="M961.33,181.42v23.13a3.07,3.07,0,0,1-3.1,3h-2.65a3.07,3.07,0,0,1-3.1-3V181.42Z"/><path class="cls-1" d="M1008.56,181.42V239.2a3.4,3.4,0,0,1-3.4,3.35h-2.06a3.38,3.38,0,0,1-3.39-3.35V181.42Z"/><path class="cls-1" d="M367.63,181.42V240a3.4,3.4,0,0,1-3.4,3.37h-2.06a3.4,3.4,0,0,1-3.4-3.37V181.42Z"/><path class="cls-1" d="M411.91,181.42v23.91a3.09,3.09,0,0,1-3.11,3.06h-2.66a3.09,3.09,0,0,1-3.1-3.06V181.42Z"/><path class="cls-1" d="M459.12,181.42V240a3.4,3.4,0,0,1-3.39,3.37h-2.07a3.4,3.4,0,0,1-3.39-3.37V181.42Z"/><path class="cls-1" d="M500.45,181.42v22.46a3.08,3.08,0,0,1-3.11,3.05h-2.66a3.06,3.06,0,0,1-3.09-3.05V181.42Z"/><path class="cls-1" d="M547.66,181.42V238.5a3.4,3.4,0,0,1-3.39,3.38H542.2a3.4,3.4,0,0,1-3.39-3.38V181.42Z"/><path class="cls-1" d="M594.89,181.42v22.46a3.07,3.07,0,0,1-3.1,3.05h-2.66a3.06,3.06,0,0,1-3.09-3.05V181.42Z"/><path class="cls-1" d="M642.11,181.42V238.5a3.4,3.4,0,0,1-3.39,3.38h-2.07a3.4,3.4,0,0,1-3.39-3.38V181.42Z"/><path class="cls-1" d="M686.85,181.42V206a3.07,3.07,0,0,1-3.09,3.06H681.1A3.08,3.08,0,0,1,678,206V181.42Z"/><path class="cls-1" d="M734.08,181.42v59.23a3.4,3.4,0,0,1-3.39,3.35h-2.08a3.4,3.4,0,0,1-3.39-3.35V181.42Z"/><path class="cls-1" d="M778.35,181.42V206a3.08,3.08,0,0,1-3.11,3.06H772.6a3.08,3.08,0,0,1-3.11-3.06V181.42Z"/><path class="cls-1" d="M825.56,181.42v59.23a3.38,3.38,0,0,1-3.39,3.35h-2.06a3.4,3.4,0,0,1-3.4-3.35V181.42Z"/><path class="cls-1" d="M858.48,433.79c-9.25,3.3-20.6,4.32-34.4,6,20.62,2.43,47.17,10,62.95,22.56,21.43,17.14,26.13,66.69,26.34,69.09h-1.92c-90.27-4.76-105.21-72.67-107.48-88.75a236.57,236.57,0,0,0-31.68,7.83c9.78,9.22,40.66,43.47,6.12,80.92h-.19c-2.12-1.88-34-31.1-11.84-78.92C746,459.7,722.49,471.14,695.63,490l3.48-12.71c17.66-11.43,60.54-37.25,139.61-44.61,19.12-1.78,30.18-9,35.66-19.29h7.92c-.28.56-.58,1.12-.89,1.68,1.22-.61,2.43-1.17,3.62-1.68H930.8c19.13,9.65,28.7,29.16,28.7,29.16-48.53,17.13-74.8-14.41-80.94-23.11C874.33,425.12,868,430.39,858.48,433.79Z"/><path class="cls-1" d="M191.77,632.93a3.87,3.87,0,0,1-.2,1.2l-14.31,43.09a3.78,3.78,0,1,1-7.18-2.38l14.31-43.1a3.79,3.79,0,0,1,7.38,1.19Z"/><path class="cls-1" d="M164.23,622.2a3.81,3.81,0,0,1-.2,1.19l-7.42,22.35L153,632.56,156.85,621a3.79,3.79,0,0,1,7.38,1.19Z"/><path class="cls-1" d="M227,617.11a3.54,3.54,0,0,1-.2,1.19l-15,45.26a3.79,3.79,0,0,1-7.19-2.39l15-45.25a3.79,3.79,0,0,1,7.39,1.19Z"/><path class="cls-1" d="M914.11,181.42V239.2a3.39,3.39,0,0,1-3.4,3.35h-2.06a3.39,3.39,0,0,1-3.39-3.35V181.42Z"/><polygon class="cls-1" points="621.19 625.18 611.92 644.43 623.1 660.26 602.49 684.18 585.17 675.49 567.52 687.51 569.28 706.81 539.47 717.23 528.83 701.04 507.53 702.62 499.39 720.23 468.37 714.35 467.25 694.99 448.01 685.71 432.17 696.9 408.25 676.29 416.94 658.96 409.07 647.42 405.67 642.42 412.32 642.42 415.24 646.71 423.3 658.55 415.08 674.93 432.5 689.94 447.48 679.36 472.55 691.44 473.6 709.75 496.21 714.04 503.9 697.39 531.64 695.32 541.71 710.64 563.43 703.05 561.76 684.79 584.75 669.13 601.13 677.35 616.14 659.93 605.57 644.95 617.66 619.89 635.95 618.83 640.24 596.22 623.6 588.54 621.52 560.79 636.84 550.72 629.25 529 610.99 530.67 595.34 507.68 603.56 491.3 586.13 476.29 571.16 486.86 546.09 474.79 545.04 456.48 522.43 452.19 514.74 468.83 487 470.91 476.93 455.59 455.21 463.18 456.88 481.44 433.89 497.1 417.5 488.87 402.5 506.3 413.07 521.27 412.03 523.42 408.65 530.42 402.57 530.42 405.94 523.42 406.72 521.8 395.53 505.97 416.14 482.04 433.47 490.74 451.11 478.72 449.36 459.41 479.17 448.99 489.81 465.19 511.11 463.61 519.24 446 550.26 451.88 551.38 471.24 570.63 480.52 586.46 469.33 610.39 489.94 601.69 507.26 613.72 524.91 633.02 523.15 643.44 552.96 627.24 563.6 628.82 584.91 646.44 593.04 640.55 624.06 621.19 625.18"/><path class="cls-1" d="M321.93,345.49v0c0,1,0,2.08,0,3.12,0,.39,0,.77,0,1.16,0,1.2,0,2.39-.07,3.59v0c0,1.15-.07,2.31-.12,3.46l0,.69a.66.66,0,0,1,0,.14c0,.11,0,.22,0,.33,0,.76-.07,1.52-.11,2.28,0,.05,0,.11,0,.16l-.06,1.13q-.21,3.7-.52,7.42c-.07.84-.14,1.68-.22,2.52s-.15,1.68-.24,2.52c-.12,1.25-.25,2.49-.39,3.74-.11,1-.23,2-.35,2.94q-.08.7-.18,1.41l0,.28-.09.69c-.12.94-.25,1.88-.38,2.82,0,0,0,0,0,.06q-.39,2.81-.85,5.63c-.07.47-.15.94-.23,1.41s-.16,1-.25,1.5c-.16,1-.33,2-.51,3-.21,1.16-.42,2.33-.65,3.49-.06.33-.12.66-.19,1-.22,1.13-.45,2.27-.68,3.4-.29,1.42-.6,2.83-.91,4.25h-7.9a298.27,298.27,0,0,0,5.4-32c.3-2.68.57-5.35.79-8,.09-1,.17-2,.24-3,.05-.59.09-1.2.13-1.8,0,0,0-.09,0-.14l0-.44c.06-.87.11-1.75.16-2.63.08-1.34.15-2.67.2-4s.1-2.46.14-3.69c0-.27,0-.54,0-.81q0-1.5.06-3c0-.36,0-.71,0-1.07q0-1.71,0-3.42c0-1.29,0-2.57,0-3.85s0-2.57-.08-3.85c0-.14,0-.29,0-.43,0-1.09-.07-2.17-.12-3.26,0-.16,0-.31,0-.46q-.06-1.52-.15-3c0-.17,0-.33,0-.5h0c-.07-1.18-.14-2.35-.22-3.52s-.16-2.2-.25-3.3l0-.32c0-.06,0-.11,0-.17-.07-.81-.14-1.61-.22-2.42,0,0,0-.05,0-.08-.06-.68-.13-1.37-.2-2.05s-.16-1.57-.25-2.35-.2-1.78-.31-2.66c-.05-.43-.1-.87-.16-1.3,0-.05,0-.11,0-.16s0-.09,0-.14c-.07-.56-.14-1.11-.22-1.67s-.18-1.36-.28-2c-.12-.85-.25-1.7-.38-2.55s-.28-1.81-.43-2.72c-.8.24-1.58.47-2.39.67l1.47-5-.74,2.79h9.26q1.08,6.29,1.83,12.68c.14,1.17.27,2.34.39,3.52,0,.28.06.56.08.84.11,1.08.21,2.16.31,3.25s.19,2.28.28,3.42l.12,1.7a.34.34,0,0,1,0,.1c0,.1,0,.19,0,.29.06.85.11,1.71.16,2.56.07,1.31.14,2.62.2,3.93v.07c0,.94.08,1.88.11,2.83,0,.08,0,.15,0,.23s0,.19,0,.29v.16c0,.22,0,.44,0,.67s0,.63,0,.95c0,.69,0,1.39.05,2.09,0,.31,0,.63,0,.95Q321.93,343.62,321.93,345.49Z"/><path class="cls-1" d="M312.65,531.08l-7.61,0c4.75,44-14.41,88.18-43.6,118.64,6.66-43.32-.63-85.62-17.55-100.52l1.32-2c4.55-5.07,8.95-10.34,13.14-15.78l-9.69.06h0q-4.59,5.71-9.5,11.15c-3.62,4-7.35,7.94-11.22,11.72q-5,4.89-10.21,9.5L148.8,541a355.52,355.52,0,0,1-3.16-37,338.62,338.62,0,0,1,3.94-64.3c.21-1.35.44-2.7.67-4.05a303.58,303.58,0,0,1,35.1-99.21q2.63-4.59,5.41-9.07L188,316.93q-4.14,6.27-8,12.83a291.85,291.85,0,0,0-14.52,28.37,315,315,0,0,0-20.94,65.94l-3.47,1.35q-2.81,1.11-5.52,2.32a127.7,127.7,0,0,0-32.78,21l-.25.22,2.26,8.22L105,457a120.18,120.18,0,0,1,37-23.76c.28-.13.57-.25.85-.36V433c-.05.27-.09.54-.14.81A345.36,345.36,0,0,0,138,504.09l-.67,9.8a42.1,42.1,0,0,0-15.48,4.83l-.2.1,2,7.41.18-.1c5.57-3,10.74-4.65,15.13-4.76q.75,9.3,2,18.63l-5.35-1.78-4.64,14-.1.29,2.44,8.89.19.06,11.48,3.81-5.73,17.24-.08.24,9.8,35.69-7-25.45.14,0,55.39,18.38h0l.76-.11,8.46-25.53,14.61,4.84,1.92.64,7.16-21.54-5-1.68-.78-.26c.33-.29.65-.59,1-.9,1.09-1,2.16-2,3.23-3l.08-.07q1.59-1.49,3.15-3c2.12-2,4.22-4.15,6.27-6.29,15,12.28,23.87,56,13.58,104.89l-1.6,7.69,8.44-4.24.39-.35C293.87,630.81,317.71,580.87,312.65,531.08ZM194.4,604l-50.28-16.68,6.68-20.12,50.28,16.69Zm25.11-20.37-83.32-27.66,3.34-10.06,83.32,27.66Z"/><path class="cls-1" d="M225.68,566.86l-.2,1.16-.78-.26C225,567.47,225.35,567.17,225.68,566.86Z"/><path class="cls-1" d="M901,286.15l-1.85,0c-.72,0-1.48-.07-2.28-.13s-1.53-.12-2.23-.19a15,15,0,0,1-1.7-.23V284c.56.05,1.27.1,2.14.15s1.81.09,2.82.11,2,0,3,0a13.38,13.38,0,0,0,3.15-.35,3.8,3.8,0,0,0,3.12-4.16v-2.05a3.79,3.79,0,0,0-4.4-4.25h-3.11a8.1,8.1,0,0,1-5-1.37q-1.81-1.38-1.81-4.86v-1.57c0-2.52.66-4.28,2-5.3a8.91,8.91,0,0,1,5.53-1.52c.73,0,1.58,0,2.55.11s1.91.16,2.84.26,1.67.2,2.23.29v1.61l-3.59-.23c-1.34-.09-2.63-.13-3.85-.13a9.61,9.61,0,0,0-3,.42,3.53,3.53,0,0,0-1.94,1.5,5.78,5.78,0,0,0-.68,3.06v1.43c0,1.64.42,2.75,1.27,3.35a5.91,5.91,0,0,0,3.49.9h3.26a7.13,7.13,0,0,1,3.56.79,4.8,4.8,0,0,1,2,2.16,7.13,7.13,0,0,1,.66,3.13v2.24a6.16,6.16,0,0,1-1.14,4,5.76,5.76,0,0,1-3,1.92A14.75,14.75,0,0,1,901,286.15Z"/><path class="cls-1" d="M924.54,285.93V259h10.4a8.53,8.53,0,0,1,4,.85,6.79,6.79,0,0,1,2.68,2.54,12.7,12.7,0,0,1,1.52,4.21,31.56,31.56,0,0,1,.48,5.85,23.2,23.2,0,0,1-1,7.14,9.92,9.92,0,0,1-2.89,4.65,7.14,7.14,0,0,1-4.82,1.65Zm2.12-1.9h8.14a5.18,5.18,0,0,0,3.81-1.45,8.91,8.91,0,0,0,2.18-4.05,23.18,23.18,0,0,0,.71-6,32,32,0,0,0-.38-5.31,11,11,0,0,0-1.19-3.58,5.11,5.11,0,0,0-2.07-2,6.71,6.71,0,0,0-3.06-.64h-8.14Z"/><path class="cls-1" d="M967.07,286.12a10,10,0,0,1-4.27-.74,5.9,5.9,0,0,1-2.69-2.43,12,12,0,0,1-1.39-4.29,41.79,41.79,0,0,1-.41-6.28,37.88,37.88,0,0,1,.43-6.05,11.68,11.68,0,0,1,1.43-4.23,6.21,6.21,0,0,1,2.73-2.47,10,10,0,0,1,4.28-.81c.86,0,1.79,0,2.8.09s2,.16,3,.3,1.9.29,2.71.46v1.57l-2.05-.2c-.91-.09-1.9-.16-3-.22s-2.17-.09-3.24-.09a6.73,6.73,0,0,0-4.25,1.19,6.4,6.4,0,0,0-2.15,3.75,30.84,30.84,0,0,0-.6,6.78,39.75,39.75,0,0,0,.33,5.62,10,10,0,0,0,1.12,3.61,4.35,4.35,0,0,0,2.16,1.93,9.19,9.19,0,0,0,3.5.56,15.05,15.05,0,0,0,3.79-.51,26.59,26.59,0,0,0,3.39-1.1v-8.75h-7v-1.54c.47-.08,1-.14,1.65-.19s1.32-.09,2-.12,1.49-.06,2.28-.06c.61,0,1.18,0,1.72,0s1,.06,1.39.11v13.88h-1.54l-.37-1.9a28.16,28.16,0,0,1-3.44,1.35A14.39,14.39,0,0,1,967.07,286.12Z"/></svg>